{
.appVersion = "3149";
.formatVersion = 3;
DisplayStrings = (
r
);
customParameters = (
{
name = vendorID;
value = NONE;
},
{
name = panose;
value = (
0,
0,
0,
0,
0,
0,
0,
0,
0,
0
);
},
{
name = unicodeRanges;
value = (
0,
1,
2,
3,
5,
6,
29,
31,
32,
33,
35,
38,
45,
62
);
},
{
name = codePageRanges;
value = (
"1252",
"1250",
"1254",
"1257"
);
},
{
name = fsType;
value = (
);
},
{
name = blueScale;
value = 0.04167;
},
{
name = glyphOrder;
value = (
.notdef,
A,
Aacute,
Abreve,
uni01CD,
Acircumflex,
Adieresis,
Agrave,
Amacron,
Aogonek,
Aring,
Aringacute,
Atilde,
AE,
B,
C,
Cacute,
Ccaron,
Ccedilla,
Cdotaccent,
D,
Eth,
Dcaron,
Dcroat,
E,
Eacute,
Ecaron,
Ecircumflex,
Edieresis,
Edotaccent,
Egrave,
Emacron,
Eogonek,
F,
uni0191,
G,
Gbreve,
uni0122,
Gdotaccent,
H,
Hbar,
I,
Iacute,
uni01CF,
Icircumflex,
Idieresis,
Idotaccent,
Igrave,
Imacron,
Iogonek,
J,
K,
uni0136,
L,
Lacute,
Lcaron,
uni013B,
Ldot,
Lslash,
M,
N,
Nacute,
Ncaron,
uni0145,
Ntilde,
Eng,
O,
Oacute,
uni01D1,
Ocircumflex,
Odieresis,
Ograve,
Ohungarumlaut,
Omacron,
Oslash,
Otilde,
OE,
P,
Thorn,
Q,
R,
Racute,
Rcaron,
uni0156,
S,
Sacute,
Scaron,
Scedilla,
uni0218,
T,
Tbar,
Tcaron,
uni0162,
uni021A,
U,
Uacute,
uni01D3,
Ucircumflex,
Udieresis,
uni01D7,
uni01D9,
uni01DB,
uni01D5,
Ugrave,
Uhungarumlaut,
Umacron,
Uogonek,
Uring,
Utilde,
V,
W,
Wacute,
Wcircumflex,
Wdieresis,
Wgrave,
X,
Y,
Yacute,
Ycircumflex,
Ydieresis,
Ygrave,
uni1EF8,
Z,
Zacute,
Zcaron,
Zdotaccent,
a,
aacute,
abreve,
uni01CE,
acircumflex,
adieresis,
agrave,
amacron,
aogonek,
aring,
atilde,
ae,
b,
c,
cacute,
ccaron,
ccedilla,
cdotaccent,
d,
eth,
dcaron,
dcroat,
e,
eacute,
ecaron,
ecircumflex,
edieresis,
edotaccent,
egrave,
emacron,
eogonek,
f,
g,
gbreve,
uni0123,
gdotaccent,
h,
hbar,
hcircumflex,
i,
dotlessi,
iacute,
uni01D0,
icircumflex,
idieresis,
i.loclTRK,
igrave,
imacron,
iogonek,
j,
uni0237,
k,
uni0137,
l,
lacute,
lcaron,
uni013C,
ldot,
lslash,
m,
n,
nacute,
ncaron,
uni0146,
ntilde,
eng,
o,
oacute,
uni01D2,
ocircumflex,
odieresis,
ograve,

glyphs = (
{
glyphname = .notdef;
lastChange = "2022-11-17 10:21:17 +0000";
layers = (
{
layerId = m01;
shapes = (
{
closed = 1;
nodes = (
(0,0,l),
(710,0,l),
(710,710,l),
(0,710,l)
);
},
{
closed = 1;
nodes = (
(355,389,l),
(78,665,l),
(631,665,l)
);
},
{
closed = 1;
nodes = (
(665,79,l),
(387,357,l),
(665,635,l)
);
},
{
closed = 1;
nodes = (
(45,80,l),
(45,634,l),
(322,357,l)
);
},
{
closed = 1;
nodes = (
(74,45,l),
(355,325,l),
(635,45,l)
);
}
);
width = 710;
}
);
note = ".notdef";
},
{
glyphname = A;
lastChange = "2022-11-17 10:24:53 +0000";
layers = (
{
layerId = m01;
shapes = (
{
closed = 1;
nodes = (
(0,-3,l),
(121,0,l),
(248,-3,l),
(248,22,l),
(228,24,ls),
(177,28,o),
(157,41,o),
(157,66,cs),
(157,81,o),
(164,100,o),
(174,124,cs),
(228,254,l),
(510,254,l),
(562,124,ls),
(571,102,o),
(576,84,o),
(576,70,cs),
(576,43,o),
(558,29,o),
(511,24,cs),
(491,22,l),
(491,-3,l),
(651,0,l),
(775,-3,l),
(775,22,l),
(755,24,ls),
(701,29,o),
(675,58,o),
(649,123,cs),
(413,710,l),
(379,710,l),
(137,123,ls),
(107,50,o),
(78,32,o),
(9,23,cs),
(0,22,l)
);
},
{
closed = 1;
nodes = (
(241,286,l),
(372,603,l),
(498,286,l)
);
}
);
width = 775;
}
);
note = A;
unicode = 65;
},
{
glyphname = AE;
lastChange = "2022-11-17 10:24:29 +0000";
layers = (
{
layerId = m01;
shapes = (
{
closed = 1;
nodes = (
(0,-3,l),
(35,-1,o),
(84,0,o),
(132,0,cs),
(180,0,o),
(228,-1,o),
(259,-3,c),
(259,19,l),
(228,22,ls),
(199,25,o),
(174,37,o),
(174,67,cs),
(174,81,o),
(180,101,o),
(195,125,cs),
(306,310,l),
(519,310,l),
(519,199,ls),
(519,48,o),
(505,29,o),
(455,24,cs),
(383,17,l),
(383,-3,l),
(538,0,l),
(982,0,l),
(985,90,l),
(992,210,l),
(967,210,l),
(954,52,o),
(922,25,o),
(796,25,cs),
(703,25,ls),
(627,25,o),
(606,54,o),
(606,107,cs),
(606,362,l),
(716,362,ls),
(762,362,o),
(787,324,o),
(787,226,c),
(812,226,l),
(809,374,l),
(812,508,l),
(787,508,l),
(782,408,o),
(755,387,o),
(716,387,cs),
(606,387,l),
(606,683,l),
(736,683,ls),
(884,683,o),
(916,669,o),
(935,546,c),
(959,546,l),
(951,638,l),
(949,710,l),
(520,710,l),
(411,713,l),
(411,690,l),
(447,688,ls),
(470,687,o),
(479,679,o),
(479,667,cs),
(479,652,o),
(466,630,o),
(450,603,cs),
(161,123,ls),
(107,33,o),
(73,27,o),
(26,22,cs),
(0,19,l)
);
},
{
closed = 1;
nodes = (
(519,664,l),
(519,336,l),
(322,336,l)
);
}
);
width = 992;
}
);
note = AE;
unicode = 198;
},
{
glyphname = B;
lastChange = "2022-11-17 10:24:53 +0000";
layers = (
{
layerId = m01;
shapes = (
{
closed = 1;
nodes = (
(0,-3,l),
(148,0,l),
(326,0,ls),
(451,0,o),
(586,46,o),
(586,202,cs),
(586,328,o),
(497,371,o),
(401,380,c),
(470,404,o),
(544,454,o),
(544,547,cs),
(544,707,o),
(361,710,o),
(270,710,cs),
(148,710,l),
(0,713,l),
(0,688,l),
(20,686,ls),
(89,678,o),
(106,676,o),
(106,577,cs),
(106,133,ls),
(106,34,o),
(89,32,o),
(20,24,cs),
(0,22,l)
);
},
{
closed = 1;
nodes = (
(300,682,ls),
(395,682,o),
(451,660,o),
(451,547,cs),
(451,440,o),
(402,387,o),
(320,387,cs),
(187,387,l),
(187,682,l)
);
},
{
closed = 1;
nodes = (
(270,28,ls),
(214,28,o),
(187,49,o),
(187,129,cs),
(187,359,l),
(280,359,ls),
(424,359,o),
(492,337,o),
(492,201,cs),
(492,60,o),
(426,28,o),
(326,28,cs)
);
}
);
width = 586;
}
);
metricLeft = "=H";
note = B;
unicode = 66;
},
{
glyphname = C;
lastChange = "2022-11-17 10:24:29 +0000";
layers = (
{
layerId = m01;
shapes = (
{
closed = 1;
nodes = (
(404,-11,o),
(460,16,o),
(495,33,cs),
(511,41,o),
(523,47,o),
(533,47,cs),
(550,47,o),
(556,28,o),
(561,11,cs),
(564,0,l),
(588,0,l),
(585,117,l),
(587,239,l),
(563,239,l),
(550,119,o),
(466,19,o),
(337,19,cs),
(163,19,o),
(102,145,o),
(102,355,cs),
(102,541,o),
(162,694,o),
(337,694,cs),
(462,694,o),
(540,614,o),
(560,476,c),
(585,476,l),
(583,593,l),
(585,710,l),
(560,710,l),
(557,682,o),
(547,672,o),
(533,672,cs),
(527,672,o),
(511,679,o),
(494,687,cs),
(467,700,o),
(415,724,o),
(334,724,cs),
(151,724,o),
(0,567,o),
(0,355,cs),
(0,141,o),
(124,-11,o),
(328,-11,cs)
);
}
);
width = 588;
}
);
note = C;
unicode = 67;
},
{
glyphname = D;
lastChange = "2022-11-17 10:24:53 +0000";
layers = (
{
layerId = m01;
shapes = (
{
closed = 1;
nodes = (
(0,-3,l),
(148,0,l),
(340,0,ls),
(534,0,o),
(710,120,o),
(710,358,cs),
(710,607,o),
(559,710,o),
(290,710,cs),
(149,710,l),
(1,713,l),
(1,688,l),
(21,686,ls),
(90,678,o),
(107,676,o),
(107,577,cs),
(107,133,ls),
(107,34,o),
(89,32,o),
(20,24,cs),
(0,22,l)
);
},
{
closed = 1;
nodes = (
(259,30,ls),
(198,30,o),
(193,88,o),
(193,146,cs),
(193,680,l),
(319,680,ls),
(536,680,o),
(614,559,o),
(614,356,cs),
(614,133,o),
(507,30,o),
(344,30,cs)
);
}
);
width = 710;
}
);
metricLeft = "=H";
metricRight = "=O";
note = D;
unicode = 68;
},
{
glyphname = E;
lastChange = "2022-11-17 10:24:53 +0000";
layers = (
{
layerId = m01;
shapes = (
{
closed = 1;
nodes = (
(0,-3,l),
(148,0,l),
(559,0,l),
(562,90,l),
(569,210,l),
(544,210,l),
(531,55,o),
(499,28,o),
(383,28,cs),
(290,28,ls),
(214,28,o),
(191,43,o),
(191,107,cs),
(191,360,l),
(303,360,ls),
(349,360,o),
(374,323,o),
(374,226,c),
(399,226,l),
(396,374,l),
(399,508,l),
(374,508,l),
(369,409,o),
(342,388,o),
(303,388,cs),
(191,388,l),
(191,681,l),
(323,681,ls),
(471,681,o),
(503,667,o),
(522,546,c),
(546,546,l),
(538,638,l),
(536,710,l),
(148,710,l),
(0,713,l),
(0,688,l),
(20,686,ls),
(89,678,o),
(106,676,o),
(106,577,cs),
(106,133,ls),
(106,34,o),
(89,32,o),
(20,24,cs),
(0,22,l)
);
}
);
width = 569;
}
);
note = E;
unicode = 69;
},
{
glyphname = F;
lastChange = "2022-11-17 10:24:53 +0000";
layers = (
{
layerId = m01;
shapes = (
{
closed = 1;
nodes = (
(0,-3,l),
(148,0,l),
(149,0,l),
(311,-3,l),
(311,22,l),
(277,24,ls),
(212,28,o),
(191,34,o),
(191,133,cs),
(191,360,l),
(303,360,ls),
(349,360,o),
(374,323,o),
(374,226,c),
(399,226,l),
(396,374,l),
(399,508,l),
(374,508,l),
(369,409,o),
(342,388,o),
(303,388,cs),
(191,388,l),
(191,681,l),
(355,681,ls),
(421,681,o),
(527,681,o),
(538,548,c),
(562,548,l),
(553,637,l),
(550,710,l),
(148,710,l),
(0,713,l),
(0,688,l),
(20,686,ls),
(89,678,o),
(106,676,o),
(106,577,cs),
(106,133,ls),
(106,34,o),
(89,32,o),
(20,24,cs),
(0,22,l)
);
}
);
width = 562;
}
);
note = F;
unicode = 70;
},
{
glyphname = G;
lastChange = "2022-11-17 10:24:53 +0000";
layers = (
{
layerId = m01;
shapes = (
{
closed = 1;
nodes = (
(431,-11,o),
(479,23,o),
(514,48,cs),
(534,63,o),
(550,75,o),
(571,75,cs),
(583,75,o),
(600,67,o),
(618,39,c),
(641,54,l),
(627,79,ls),
(617,97,o),
(605,125,o),
(605,156,cs),
(605,174,ls),
(605,237,o),
(630,258,o),
(666,261,cs),
(711,265,l),
(711,289,l),
(557,285,l),
(391,289,l),
(391,265,l),
(434,261,ls),
(507,254,o),
(530,233,o),
(530,174,cs),
(530,146,ls),
(530,81,o),
(449,19,o),
(338,19,cs),
(188,19,o),
(102,126,o),
(102,355,cs),
(102,572,o),
(179,694,o),
(335,694,cs),
(442,694,o),
(555,614,o),
(559,478,c),
(584,478,l),
(582,595,l),
(584,710,l),
(559,710,l),
(559,694,o),
(552,673,o),
(534,673,cs),
(517,673,o),
(508,677,o),
(474,692,cs),
(444,705,o),
(397,724,o),
(338,724,cs),
(156,724,o),
(0,572,o),
(0,355,cs),
(0,131,o),
(148,-11,o),
(332,-11,cs)
);
}
);
width = 711;
}
);
note = G;
unicode = 71;
},
{
glyphname = H;
lastChange = "2022-11-17 10:24:53 +0000";
layers = (
{
layerId = m01;
shapes = (
{
closed = 1;
nodes = (
(0,-3,l),
(148,0,l),
(149,0,l),
(297,-3,l),
(297,22,l),
(277,24,ls),
(208,32,o),
(191,34,o),
(191,133,cs),
(191,352,l),
(572,352,l),
(572,133,ls),
(572,34,o),
(555,32,o),
(486,24,cs),
(466,22,l),
(466,-3,l),
(614,0,l),
(615,0,l),
(763,-3,l),
(763,22,l),
(743,24,ls),
(674,32,o),
(657,34,o),
(657,133,cs),
(657,577,ls),
(657,676,o),
(674,678,o),
(743,686,cs),
(763,688,l),
(763,713,l),
(615,710,l),
(614,710,l),
(466,713,l),
(466,688,l),
(486,686,ls),
(555,678,o),
(572,676,o),
(572,577,cs),
(572,384,l),
(191,384,l),
(191,577,ls),
(191,676,o),
(208,678,o),
(277,686,cs),
(297,688,l),
(297,713,l),
(149,710,l),
(148,710,l),
(0,713,l),
(0,688,l),
(20,686,ls),
(89,678,o),
(106,676,o),
(106,577,cs),
(106,133,ls),
(106,34,o),
(89,32,o),
(20,24,cs),
(0,22,l)
);
}
);
width = 763;
}
);
note = H;
unicode = 72;
},
{
glyphname = I;
lastChange = "2022-11-17 10:24:53 +0000";
layers = (
{
layerId = m01;
shapes = (
{
closed = 1;
nodes = (
(0,-3,l),
(148,0,l),
(149,0,l),
(297,-3,l),
(297,22,l),
(277,24,ls),
(208,32,o),
(191,34,o),
(191,133,cs),
(191,577,ls),
(191,676,o),
(208,678,o),
(277,686,cs),
(297,688,l),
(297,713,l),
(149,710,l),
(148,710,l),
(0,713,l),
(0,688,l),
(20,686,ls),
(89,678,o),
(106,676,o),
(106,577,cs),
(106,133,ls),
(106,34,o),
(89,32,o),
(20,24,cs),
(0,22,l)
);
}
);
width = 297;
}
);
note = I;
unicode = 73;
},
{
glyphname = J;
lastChange = "2022-11-17 10:24:53 +0000";
layers = (
{
layerId = m01;
shapes = (
{
closed = 1;
nodes = (
(190,-11,o),
(280,6,o),
(280,141,cs),
(280,577,ls),
(280,676,o),
(297,678,o),
(366,686,cs),
(386,688,l),
(386,713,l),
(238,710,l),
(237,710,l),
(89,713,l),
(89,688,l),
(109,686,ls),
(178,678,o),
(195,676,o),
(195,577,cs),
(195,123,ls),
(195,99,o),
(195,13,o),
(121,13,cs),
(94,13,o),
(86,28,o),
(86,41,cs),
(86,48,o),
(88,54,o),
(91,62,cs),
(94,69,o),
(97,77,o),
(97,89,cs),
(97,113,o),
(77,130,o),
(52,130,cs),
(17,130,o),
(0,104,o),
(0,77,cs),
(0,24,o),
(56,-11,o),
(115,-11,cs)
);
}
);
width = 386;
}
);
note = J;
unicode = 74;
},
{
glyphname = K;
lastChange = "2022-11-17 10:24:53 +0000";
layers = (
{
layerId = m01;
shapes = (
{
closed = 1;
nodes = (
(0,-3,l),
(148,0,l),
(149,0,l),
(284,-3,l),
(284,22,l),
(266,24,ls),
(202,32,o),
(187,34,o),
(187,133,cs),
(187,258,l),
(267,352,l),
(457,107,ls),
(474,85,o),
(484,66,o),
(484,52,cs),
(484,36,o),
(470,25,o),
(436,23,cs),
(421,22,l),
(421,-3,l),
(569,0,l),
(721,-3,l),
(721,22,l),
(700,24,ls),
(628,31,o),
(586,82,o),
(518,171,cs),
(326,422,l),
(482,606,ls),
(520,651,o),
(554,679,o),
(594,684,cs),
(628,688,l),
(628,713,l),
(507,710,l),
(379,713,l),
(379,687,l),
(411,684,ls),
(440,681,o),
(457,671,o),
(457,652,cs),
(457,635,o),
(445,611,o),
(417,578,cs),
(187,309,l),
(187,577,ls),
(187,667,o),
(200,678,o),
(261,685,cs),
(281,687,l),
(281,713,l),
(148,710,l),
(0,713,l),
(0,688,l),
(20,686,ls),
(89,678,o),
(106,676,o),
(106,577,cs),
(106,133,ls),
(106,34,o),
(89,32,o),
(20,24,cs),
(0,22,l)
);
}
);
width = 721;
}
);
note = K;
unicode = 75;
},
{
glyphname = L;
lastChange = "2022-11-17 10:24:53 +0000";
layers = (
{
layerId = m01;
shapes = (
{
closed = 1;
nodes = (
(0,-3,l),
(148,0,l),
(566,-3,l),
(576,210,l),
(554,210,l),
(544,92,o),
(499,29,o),
(383,29,cs),
(308,29,ls),
(195,29,o),
(191,73,o),
(191,172,cs),
(191,589,ls),
(191,679,o),
(205,681,o),
(263,688,cs),
(279,690,l),
(279,713,l),
(150,710,l),
(0,713,l),
(0,688,l),
(20,686,ls),
(89,679,o),
(106,676,o),
(106,577,cs),
(106,133,ls),
(106,34,o),
(89,31,o),
(20,24,cs),
(0,22,l)
);
}
);
width = 576;
}
);
note = L;
unicode = 76;
},
{
glyphname = M;
lastChange = "2022-11-17 10:24:53 +0000";
layers = (
{
layerId = m01;
shapes = (
{
closed = 1;
nodes = (
(0,-3,l),
(120,0,l),
(247,-3,l),
(247,22,l),
(227,24,ls),
(161,31,o),
(141,41,o),
(141,105,cs),
(141,637,l),
(399,0,l),
(418,0,l),
(714,647,l),
(714,133,ls),
(714,34,o),
(697,31,o),
(628,24,cs),
(608,22,l),
(608,-3,l),
(757,0,l),
(905,-3,l),
(905,22,l),
(885,24,ls),
(816,31,o),
(799,34,o),
(799,133,cs),
(799,577,ls),
(799,676,o),
(816,678,o),
(885,686,cs),
(905,688,l),
(905,713,l),
(765,710,l),
(705,710,l),
(442,133,l),
(204,710,l),
(148,710,l),
(0,713,l),
(0,688,l),
(20,686,ls),
(89,678,o),
(106,676,o),
(106,577,cs),
(106,133,ls),
(106,34,o),
(89,32,o),
(20,24,cs),
(0,22,l)
);
}
);
width = 905;
}
);
note = M;
unicode = 77;
},
{
glyphname = N;
lastChange = "2022-11-17 10:24:53 +0000";
layers = (
{
layerId = m01;
shapes = (
{
closed = 1;
nodes = (
(4,-4,l),
(128,0,l),
(256,-4,l),
(256,21,l),
(236,23,ls),
(167,30,o),
(150,33,o),
(150,133,cs),
(150,606,l),
(254,483,o),
(525,131,o),
(590,0,c),
(620,0,l),
(620,577,ls),
(620,676,o),
(637,678,o),
(706,686,cs),
(726,688,l),
(726,713,l),
(604,710,l),
(474,713,l),
(474,688,l),
(494,686,ls),
(563,679,o),
(580,676,o),
(580,577,cs),
(580,199,l),
(510,289,o),
(267,610,o),
(194,710,c),
(0,713,l),
(0,687,l),
(30,687,ls),
(76,687,o),
(98,664,o),
(110,649,c),
(110,133,ls),
(110,33,o),
(93,30,o),
(24,23,cs),
(4,21,l)
);
}
);
width = 726;
}
);
note = N;
unicode = 78;
},
{
glyphname = O;
lastChange = "2022-11-17 10:24:53 +0000";
layers = (
{
layerId = m01;
shapes = (
{
closed = 1;
nodes = (
(547,-11,o),
(694,141,o),
(694,357,cs),
(694,572,o),
(547,724,o),
(347,724,cs),
(147,724,o),
(0,572,o),
(0,357,cs),
(0,141,o),
(147,-11,o),
(347,-11,cs)
);
},
{
closed = 1;
nodes = (
(174,19,o),
(102,147,o),
(102,357,cs),
(102,566,o),
(174,694,o),
(347,694,cs),
(520,694,o),
(592,566,o),
(592,357,cs),
(592,147,o),
(520,19,o),
(347,19,cs)
);
}
);
width = 694;
}
);
note = O;
unicode = 79;
},
{
glyphname = OE;
lastChange = "2022-11-17 10:24:29 +0000";
layers = (
{
layerId = m01;
shapes = (
{
closed = 1;
nodes = (
(369,-11,o),
(396,-8,o),
(422,-2,c),
(507,0,l),
(898,0,l),
(901,90,l),
(908,210,l),
(883,210,l),
(870,52,o),
(838,25,o),
(712,25,cs),
(620,25,ls),
(567,25,o),
(552,54,o),
(552,107,cs),
(552,362,l),
(632,362,ls),
(678,362,o),
(703,324,o),
(703,226,c),
(728,226,l),
(725,374,l),
(728,508,l),
(703,508,l),
(698,408,o),
(671,387,o),
(632,387,cs),
(552,387,l),
(552,683,l),
(652,683,ls),
(800,683,o),
(832,669,o),
(851,546,c),
(875,546,l),
(867,638,l),
(865,710,l),
(449,710,l),
(418,719,o),
(385,725,o),
(352,725,cs),
(165,725,o),
(0,572,o),
(0,355,cs),
(0,141,o),
(147,-11,o),
(342,-11,cs)
);
},
{
closed = 1;
nodes = (
(181,19,o),
(102,145,o),
(102,355,cs),
(102,558,o),
(180,695,o),
(352,695,cs),
(427,695,o),
(466,672,o),
(466,577,cs),
(466,133,ls),
(466,37,o),
(435,19,o),
(342,19,cs)
);
}
);
width = 908;
}
);
note = OE;
unicode = 338;
},
{
glyphname = P;
lastChange = "2022-11-17 10:24:53 +0000";
layers = (
{
layerId = m01;
shapes = (
{
closed = 1;
nodes = (
(0,-3,l),
(145,0,l),
(314,-3,l),
(314,22,l),
(292,24,ls),
(211,32,o),
(191,34,o),
(191,133,cs),
(191,315,l),
(308,315,ls),
(479,315,o),
(570,395,o),
(570,514,cs),
(570,680,o),
(445,710,o),
(284,710,cs),
(148,710,l),
(0,713,l),
(0,688,l),
(20,686,ls),
(89,678,o),
(106,676,o),
(106,577,cs),
(106,133,ls),
(106,34,o),
(89,32,o),
(20,24,cs),
(0,22,l)
);
},
{
closed = 1;
nodes = (
(323,682,ls),
(385,682,o),
(475,666,o),
(475,514,cs),
(475,408,o),
(446,345,o),
(308,345,cs),
(191,345,l),
(191,682,l)
);
}
);
width = 570;
}
);
note = P;
unicode = 80;
},
{
glyphname = Q;
lastChange = "2022-11-17 10:24:53 +0000";
layers = (
{
layerId = m01;
shapes = (
{
closed = 1;
nodes = (
(681,-294,o),
(722,-233,o),
(732,-124,c),
(712,-124,l),
(701,-200,o),
(657,-221,o),
(612,-221,cs),
(561,-221,o),
(511,-187,o),
(462,-147,cs),
(408,-103,o),
(354,-65,o),
(269,-65,cs),
(267,-65,o),
(264,-65,o),
(262,-65,c),
(382,-9,l),
(564,8,o),
(694,154,o),
(694,357,cs),
(694,572,o),
(547,724,o),
(347,724,cs),
(147,724,o),
(0,572,o),
(0,357,cs),
(0,149,o),
(136,0,o),
(325,-10,c),
(180,-77,l),
(91,-77,o),
(27,-103,o),
(27,-152,cs),
(27,-174,o),
(39,-185,o),
(56,-185,cs),
(78,-185,o),
(99,-170,o),
(118,-151,cs),
(137,-132,o),
(159,-116,o),
(185,-100,c),
(262,-104,o),
(320,-138,o),
(397,-202,cs),
(443,-240,o),
(496,-294,o),
(591,-294,cs)
);
},
{
closed = 1;
nodes = (
(174,19,o),
(102,147,o),
(102,357,cs),
(102,566,o),
(174,694,o),
(347,694,cs),
(520,694,o),
(592,566,o),
(592,357,cs),
(592,147,o),
(520,19,o),
(347,19,cs)
);
}
);
width = 732;
}
);
note = Q;
unicode = 81;
},
{
glyphname = R;
lastChange = "2022-11-17 10:24:53 +0000";
layers = (
{
layerId = m01;
shapes = (
{
closed = 1;
nodes = (
(604,-11,o),
(644,1,o),
(665,12,c),
(658,37,l),
(647,31,o),
(633,25,o),
(618,25,cs),
(584,25,o),
(549,56,o),
(532,169,cs),
(514,286,o),
(450,347,o),
(352,353,c),
(454,368,o),
(543,416,o),
(543,535,cs),
(543,670,o),
(423,710,o),
(288,710,cs),
(148,710,l),
(0,713,l),
(0,688,l),
(20,686,ls),
(89,678,o),
(106,676,o),
(106,577,cs),
(106,133,ls),
(106,34,o),
(89,32,o),
(20,24,cs),
(0,22,l),
(0,-3,l),
(148,0,l),
(149,0,l),
(297,-3,l),
(297,22,l),
(277,24,ls),
(208,32,o),
(191,34,o),
(191,133,cs),
(191,346,l),
(234,346,ls),
(408,346,o),
(437,226,o),
(451,119,cs),
(461,45,o),
(493,-11,o),
(567,-11,cs)
);
},
{
closed = 1;
nodes = (
(290,684,ls),
(407,684,o),
(448,627,o),
(448,529,cs),
(448,425,o),
(403,373,o),
(275,373,cs),
(191,373,l),
(191,684,l)
);
}
);
width = 665;
}
);
note = R;
unicode = 82;
},
{
glyphname = S;
lastChange = "2022-11-17 10:24:53 +0000";
layers = (
{
layerId = m01;
shapes = (
{
closed = 1;
nodes = (
(359,-11,o),
(446,68,o),
(446,187,cs),
(446,300,o),
(379,350,o),
(269,404,cs),
(228,424,ls),
(149,462,o),
(95,499,o),
(95,575,cs),
(95,646,o),
(148,696,o),
(227,696,cs),
(306,696,o),
(381,630,o),
(394,519,c),
(419,519,l),
(417,616,l),
(420,712,l),
(395,712,l),
(393,690,o),
(388,681,o),
(376,681,cs),
(365,681,o),
(353,685,o),
(335,694,cs),
(314,705,o),
(276,724,o),
(222,724,cs),
(104,724,o),
(20,649,o),
(20,543,cs),
(20,452,o),
(68,400,o),
(168,352,cs),
(210,332,ls),
(313,283,o),
(374,235,o),
(374,146,cs),
(374,56,o),
(310,18,o),
(249,18,cs),
(137,18,o),
(59,111,o),
(38,200,cs),
(27,247,l),
(2,247,l),
(5,118,l),
(0,0,l),
(25,0,l),
(28,15,ls),
(32,33,o),
(37,52,o),
(56,52,cs),
(70,52,o),
(88,44,o),
(118,28,cs),
(152,10,o),
(196,-11,o),
(249,-11,cs)
);
}
);
width = 446;
}
);
note = S;
unicode = 83;
},
{
glyphname = T;
lastChange = "2022-11-17 10:24:53 +0000";
layers = (
{
layerId = m01;
shapes = (
{
closed = 1;
nodes = (
(203,-3,l),
(371,0,l),
(534,-3,l),
(534,22,l),
(512,24,ls),
(431,32,o),
(411,34,o),
(411,133,cs),
(411,683,l),
(559,683,ls),
(645,683,o),
(670,620,o),
(716,504,c),
(738,510,l),
(713,633,l),
(702,713,l),
(416,710,l),
(321,710,l),
(36,713,l),
(25,633,l),
(0,510,l),
(21,505,l),
(73,635,o),
(93,683,o),
(185,683,cs),
(326,683,l),
(326,133,ls),
(326,34,o),
(306,32,o),
(225,24,cs),
(203,22,l)
);
}
);
width = 738;
}
);
note = T;
unicode = 84;
},
{
glyphname = U;
lastChange = "2022-11-17 10:24:53 +0000";
layers = (
{
layerId = m01;
shapes = (
{
closed = 1;
nodes = (
(533,-11,o),
(614,74,o),
(614,229,cs),
(614,577,ls),
(614,676,o),
(631,678,o),
(700,686,cs),
(720,688,l),
(720,713,l),
(621,711,l),
(473,713,l),
(473,688,l),
(493,686,ls),
(562,678,o),
(579,676,o),
(579,577,cs),
(579,229,ls),
(579,101,o),
(522,22,o),
(388,22,cs),
(272,22,o),
(191,88,o),
(191,223,cs),
(191,577,ls),
(191,676,o),
(208,678,o),
(277,686,cs),
(297,688,l),
(297,713,l),
(149,710,l),
(148,710,l),
(0,713,l),
(0,688,l),
(20,686,ls),
(89,678,o),
(106,676,o),
(106,577,cs),
(106,223,ls),
(106,57,o),
(202,-11,o),
(369,-11,cs)
);
}
);
width = 720;
}
);
note = U;
unicode = 85;
},
{
glyphname = V;
lastChange = "2022-11-17 10:24:53 +0000";
layers = (
{
layerId = m01;
shapes = (
{
closed = 1;
nodes = (
(371,-10,l),
(403,-10,l),
(643,587,ls),
(666,644,o),
(689,673,o),
(740,684,cs),
(763,689,l),
(763,713,l),
(663,710,l),
(523,713,l),
(523,688,l),
(558,684,ls),
(595,680,o),
(618,666,o),
(618,634,cs),
(618,622,o),
(615,607,o),
(607,588,cs),
(413,108,l),
(211,587,ls),
(204,604,o),
(200,619,o),
(200,632,cs),
(200,665,o),
(226,681,o),
(268,685,cs),
(298,688,l),
(298,713,l),
(149,710,l),
(0,713,l),
(0,688,l),
(20,684,ls),
(69,674,o),
(92,648,o),
(109,607,cs)
);
}
);
width = 763;
}
);
note = V;
unicode = 86;
},
{
glyphname = W;
lastChange = "2022-11-17 10:24:53 +0000";
layers = (
{
layerId = m01;
shapes = (
{
closed = 1;
nodes = (
(310,-9,l),
(342,-9,l),
(541,530,l),
(743,-9,l),
(775,-9,l),
(967,621,ls),
(978,658,o),
(1011,676,o),
(1055,683,cs),
(1079,687,l),
(1079,713,l),
(973,710,l),
(841,713,l),
(841,687,l),
(874,683,ls),
(912,678,o),
(933,668,o),
(933,639,cs),
(933,631,o),
(931,621,o),
(928,610,cs),
(781,129,l),
(614,582,ls),
(607,600,o),
(604,616,o),
(604,629,cs),
(604,662,o),
(626,681,o),
(669,684,cs),
(707,687,l),
(705,713,l),
(668,711,ls),
(632,709,o),
(588,704,o),
(567,664,c),
(557,688,o),
(529,703,o),
(479,708,cs),
(437,713,l),
(433,687,l),
(473,681,ls),
(512,675,o),
(536,660,o),
(536,629,cs),
(536,621,o),
(534,611,o),
(530,599,cs),
(356,126,l),
(203,598,ls),
(198,612,o),
(196,623,o),
(196,633,cs),
(196,674,o),
(234,681,o),
(270,685,cs),
(298,688,l),
(298,713,l),
(150,710,l),
(0,713,l),
(0,688,l),
(23,683,ls),
(66,674,o),
(96,651,o),
(114,594,cs)
);
}
);
width = 1079;
}
);
note = W;
unicode = 87;
},
{
glyphname = X;
lastChange = "2022-11-17 10:24:53 +0000";
layers = (
{
layerId = m01;
shapes = (
{
closed = 1;
nodes = (
(0,-3,l),
(124,0,l),
(248,-3,l),
(248,22,l),
(210,26,ls),
(188,28,o),
(176,42,o),
(176,62,cs),
(176,75,o),
(180,92,o),
(192,109,cs),
(343,319,l),
(469,129,ls),
(486,103,o),
(495,81,o),
(495,64,cs),
(495,43,o),
(480,29,o),
(448,26,cs),
(407,22,l),
(407,-3,l),
(578,0,l),
(727,-3,l),
(727,22,l),
(697,27,ls),
(655,34,o),
(618,56,o),
(576,119,cs),
(402,380,l),
(549,583,ls),
(602,657,o),
(649,682,o),
(687,686,cs),
(708,688,l),
(708,713,l),
(592,710,l),
(460,713,l),
(460,688,l),
(493,684,ls),
(524,680,o),
(537,666,o),
(537,646,cs),
(537,633,o),
(531,617,o),
(519,600,cs),
(382,409,l),
(270,577,ls),
(250,607,o),
(240,630,o),
(240,647,cs),
(240,668,o),
(257,679,o),
(292,683,cs),
(334,688,l),
(334,713,l),
(179,710,l),
(14,713,l),
(14,688,l),
(34,684,ls),
(85,674,o),
(114,664,o),
(160,594,cs),
(324,348,l),
(162,126,ls),
(100,40,o),
(60,31,o),
(21,25,cs),
(0,22,l)
);
}
);
width = 727;
}
);
note = X;
unicode = 88;
},
{
glyphname = Y;
lastChange = "2022-11-17 10:24:53 +0000";
layers = (
{
layerId = m01;
shapes = (
{
closed = 1;
nodes = (
(208,-3,l),
(356,0,l),
(357,0,l),
(505,-3,l),
(505,22,l),
(485,24,ls),
(416,32,o),
(399,34,o),
(399,133,cs),
(399,288,l),
(581,606,ls),
(609,655,o),
(632,675,o),
(675,683,cs),
(702,688,l),
(702,713,l),
(596,708,l),
(464,713,l),
(464,688,l),
(493,685,ls),
(526,682,o),
(550,672,o),
(550,644,cs),
(550,629,o),
(543,609,o),
(528,582,cs),
(383,328,l),
(237,582,ls),
(222,608,o),
(215,628,o),
(215,643,cs),
(215,670,o),
(237,682,o),
(270,685,cs),
(302,688,l),
(302,713,l),
(152,710,l),
(0,713,l),
(0,688,l),
(29,682,ls),
(83,671,o),
(108,647,o),
(139,593,cs),
(314,287,l),
(314,133,ls),
(314,34,o),
(297,32,o),
(228,24,cs),
(208,22,l)
);
}
);
width = 702;
}
);
note = Y;
unicode = 89;
},
{
glyphname = Z;
lastChange = "2022-11-17 10:24:53 +0000";
layers = (
{
layerId = m01;
shapes = (
{
closed = 1;
nodes = (
(559,-3,l),
(559,100,l),
(569,267,l),
(545,267,l),
(524,115,o),
(499,33,o),
(348,32,cs),
(104,30,l),
(555,679,l),
(555,713,l),
(331,710,l),
(36,712,l),
(34,659,l),
(23,526,l),
(47,526,l),
(63,640,o),
(77,676,o),
(259,678,cs),
(455,680,l),
(0,26,l),
(0,0,l),
(353,0,l)
);
}
);
width = 569;
}
);
note = Z;
unicode = 90;
},
{
glyphname = a;
lastChange = "2022-11-17 10:24:53 +0000";
layers = (
{
layerId = m01;
shapes = (
{
closed = 1;
nodes = (
(179,-11,o),
(239,22,o),
(276,82,c),
(279,26,o),
(297,-11,o),
(355,-11,cs),
(403,-11,o),
(429,13,o),
(440,52,c),
(422,59,l),
(416,41,o),
(401,24,o),
(381,24,cs),
(350,24,o),
(345,57,o),
(345,116,cs),
(345,296,ls),
(345,408,o),
(298,454,o),
(191,454,cs),
(116,454,o),
(19,427,o),
(19,356,cs),
(19,331,o),
(37,310,o),
(61,310,cs),
(86,310,o),
(107,325,o),
(107,350,cs),
(107,360,o),
(105,369,o),
(102,377,cs),
(100,383,o),
(98,390,o),
(98,396,cs),
(98,421,o),
(141,429,o),
(177,429,cs),
(253,429,o),
(275,393,o),
(275,320,cs),
(275,288,l),
(237,273,o),
(182,252,o),
(130,223,cs),
(61,185,o),
(0,141,o),
(0,82,cs),
(0,23,o),
(47,-11,o),
(111,-11,cs)
);
},
{
closed = 1;
nodes = (
(78,168,o),
(187,231,o),
(275,268,c),
(275,122,l),
(256,73,o),
(201,26,o),
(143,26,cs),
(100,26,o),
(78,50,o),
(78,87,cs)
);
}
);
width = 440;
}
);
note = a;
unicode = 97;
},
{
glyphname = ae;
lastChange = "2022-11-17 10:24:53 +0000";
layers = (
{
layerId = m01;
shapes = (
{
closed = 1;
nodes = (
(180,-11,o),
(247,27,o),
(287,93,c),
(328,32,o),
(395,-11,o),
(486,-11,cs),
(574,-11,o),
(633,31,o),
(661,117,c),
(637,124,l),
(611,55,o),
(559,21,o),
(500,21,cs),
(404,21,o),
(345,105,o),
(345,222,cs),
(345,245,l),
(647,245,l),
(649,251,o),
(652,262,o),
(652,275,cs),
(652,383,o),
(588,454,o),
(488,454,cs),
(416,454,o),
(364,421,o),
(331,379,c),
(313,421,o),
(275,454,o),
(193,454,cs),
(116,454,o),
(19,424,o),
(19,353,cs),
(19,328,o),
(37,310,o),
(60,310,cs),
(86,310,o),
(107,325,o),
(107,350,cs),
(107,360,o),
(105,369,o),
(102,377,cs),
(100,383,o),
(98,390,o),
(98,396,cs),
(98,421,o),
(152,429,o),
(188,429,cs),
(267,429,o),
(275,373,o),
(275,306,cs),
(275,288,l),
(187,255,o),
(0,179,o),
(0,83,cs),
(0,18,o),
(50,-11,o),
(119,-11,cs)
);
},
{
closed = 1;
nodes = (
(535,429,o),
(586,393,o),
(586,335,cs),
(586,305,o),
(567,268,o),
(474,268,cs),
(346,268,l),
(354,358,o),
(409,429,o),
(488,429,cs)
);
},
{
closed = 1;
nodes = (
(78,168,o),
(187,231,o),
(275,268,c),
(275,121,l),
(256,72,o),
(196,24,o),
(149,24,cs),
(109,24,o),
(78,49,o),
(78,87,cs)
);
}
);
width = 661;
}
);
note = ae;
unicode = 230;
},
{
glyphname = b;
lastChange = "2022-11-17 10:24:53 +0000";
layers = (
{
layerId = m01;
shapes = (
{
closed = 1;
nodes = (
(88,-11,l),
(104,-11,l),
(157,48,l),
(187,17,o),
(236,-11,o),
(293,-11,cs),
(412,-11,o),
(500,91,o),
(500,220,cs),
(500,351,o),
(412,454,o),
(297,454,cs),
(240,454,o),
(193,429,o),
(158,391,c),
(158,725,l),
(103,715,o),
(55,713,o),
(0,713,c),
(0,690,l),
(7,690,ls),
(57,690,o),
(88,678,o),
(88,609,cs)
);
},
{
closed = 1;
nodes = (
(376,424,o),
(420,336,o),
(420,220,cs),
(420,106,o),
(376,19,o),
(284,19,cs),
(229,19,o),
(180,53,o),
(158,87,c),
(158,357,l),
(188,394,o),
(230,424,o),
(287,424,cs)
);
}
);
width = 500;
}
);
metricLeft = "=n-10";
metricRight = "=o";
note = b;
unicode = 98;
},
{
glyphname = c;
lastChange = "2022-11-17 10:24:53 +0000";
layers = (
{
layerId = m01;
shapes = (
{
closed = 1;
nodes = (
(297,-11,o),
(370,23,o),
(395,115,c),
(371,123,l),
(348,47,o),
(292,19,o),
(236,19,cs),
(134,19,o),
(80,110,o),
(80,216,cs),
(80,344,o),
(141,429,o),
(234,429,cs),
(254,429,o),
(290,424,o),
(290,406,cs),
(290,398,o),
(288,391,o),
(286,384,cs),
(284,377,o),
(282,369,o),
(282,359,cs),
(282,339,o),
(299,314,o),
(334,314,cs),
(360,314,o),
(382,335,o),
(382,365,cs),
(382,423,o),
(299,454,o),
(235,454,cs),
(101,454,o),
(0,351,o),
(0,211,cs),
(0,83,o),
(86,-11,o),
(221,-11,cs)
);
}
);
width = 395;
}
);
metricLeft = "=o";
note = c;
unicode = 99;
},
{
glyphname = d;
lastChange = "2022-11-17 10:24:29 +0000";
layers = (
{
layerId = m01;
shapes = (
{
closed = 1;
nodes = (
(265,-11,o),
(315,19,o),
(351,62,c),
(364,-8,l),
(399,-1,o),
(424,0,o),
(454,0,cs),
(495,0,l),
(495,23,l),
(441,23,o),
(412,34,o),
(412,109,cs),
(412,725,l),
(357,715,o),
(309,713,o),
(254,713,c),
(254,690,l),
(261,690,ls),
(311,690,o),
(342,678,o),
(342,609,cs),
(342,397,l),
(312,427,o),
(263,454,o),
(207,454,cs),
(88,454,o),
(0,352,o),
(0,223,cs),
(0,92,o),
(88,-11,o),
(203,-11,cs)
);
},
{
closed = 1;
nodes = (
(80,337,o),
(124,424,o),
(216,424,cs),
(271,424,o),
(320,390,o),
(342,356,c),
(342,86,l),
(312,49,o),
(270,19,o),
(213,19,cs),
(124,19,o),
(80,107,o),
(80,223,cs)
);
}
);
width = 495;
}
);
metricLeft = "=o";
metricRight = "=n";
note = d;
unicode = 100;
},
{
glyphname = e;
lastChange = "2022-11-17 10:24:53 +0000";
layers = (
{
layerId = m01;
shapes = (
{
closed = 1;
nodes = (
(310,-11,o),
(369,31,o),
(397,115,c),
(373,124,l),
(346,54,o),
(295,19,o),
(233,19,cs),
(132,19,o),
(80,110,o),
(80,217,cs),
(80,227,o),
(80,236,o),
(81,245,c),
(383,245,l),
(384,249,o),
(386,260,o),
(386,276,cs),
(386,382,o),
(324,454,o),
(222,454,cs),
(100,454,o),
(0,351,o),
(0,212,cs),
(0,81,o),
(87,-11,o),
(219,-11,cs)
);
},
{
closed = 1;
nodes = (
(271,429,o),
(319,393,o),
(319,335,cs),
(319,305,o),
(300,268,o),
(210,268,cs),
(83,268,l),
(94,365,o),
(140,429,o),
(222,429,cs)
);
}
);
width = 397;
}
);
metricLeft = "=o";
metricRight = "=c";
note = e;
unicode = 101;
},
{
glyphname = f;
lastChange = "2022-11-17 10:24:53 +0000";
layers = (
{
layerId = m01;
shapes = (
{
closed = 1;
nodes = (
(0,-3,l),
(123,0,l),
(246,-3,l),
(246,20,l),
(230,22,ls),
(172,29,o),
(158,31,o),
(158,121,cs),
(158,411,l),
(261,411,l),
(261,436,l),
(158,436,l),
(158,550,ls),
(158,632,o),
(172,699,o),
(248,699,cs),
(265,699,o),
(283,692,o),
(283,675,cs),
(283,671,o),
(282,667,o),
(280,662,cs),
(277,654,o),
(274,645,o),
(274,632,cs),
(274,611,o),
(293,590,o),
(318,590,cs),
(345,590,o),
(367,608,o),
(367,643,cs),
(367,696,o),
(316,724,o),
(248,724,cs),
(143,724,o),
(88,672,o),
(88,550,cs),
(88,436,l),
(2,436,l),
(2,411,l),
(88,411,l),
(88,121,ls),
(88,31,o),
(74,29,o),
(16,22,cs),
(0,20,l)
);
}
);
width = 367;
}
);
metricLeft = "=n";
note = f;
unicode = 102;
},
{
glyphname = g;
lastChange = "2022-11-17 10:24:53 +0000";
layers = (
{
layerId = m01;
shapes = (
{
closed = 1;
nodes = (
(346,132,o),
(427,203,o),
(427,293,cs),
(427,340,o),
(404,382,o),
(368,412,c),
(380,430,o),
(399,448,o),
(420,448,cs),
(437,448,o),
(445,436,o),
(448,420,cs),
(453,394,o),
(470,378,o),
(493,378,cs),
(514,378,o),
(536,394,o),
(536,422,cs),
(536,456,o),
(501,479,o),
(460,479,cs),
(420,479,o),
(377,463,o),
(349,425,c),
(319,443,o),
(282,454,o),
(242,454,cs),
(138,454,o),
(57,384,o),
(57,293,cs),
(57,232,o),
(93,181,o),
(147,154,c),
(94,139,o),
(42,98,o),
(42,46,cs),
(42,-28,o),
(124,-39,o),
(185,-42,cs),
(287,-47,ls),
(386,-52,o),
(432,-77,o),
(432,-137,cs),
(432,-223,o),
(344,-269,o),
(242,-269,cs),
(150,-269,o),
(72,-245,o),
(72,-176,cs),
(72,-142,o),
(97,-133,o),
(97,-99,cs),
(97,-74,o),
(78,-61,o),
(56,-61,cs),
(22,-61,o),
(0,-93,o),
(0,-135,cs),
(0,-245,o),
(117,-294,o),
(242,-294,cs),
(365,-294,o),
(478,-230,o),
(478,-116,cs),
(478,7,o),
(377,24,o),
(252,30,cs),
(208,32,ls),
(152,35,o),
(102,41,o),
(102,83,cs),
(102,115,o),
(139,134,o),
(176,142,c),
(197,136,o),
(219,132,o),
(242,132,cs)
);
},
{
closed = 1;
nodes = (
(164,157,o),
(134,216,o),
(134,293,cs),
(134,370,o),
(164,429,o),
(242,429,cs),
(320,429,o),
(350,370,o),
(350,293,cs),
(350,216,o),
(320,157,o),
(242,157,cs)
);
}
);
width = 536;
}
);
note = g;
unicode = 103;
},
{
glyphname = h;
lastChange = "2022-11-17 10:24:53 +0000";
layers = (
{
layerId = m01;
shapes = (
{
closed = 1;
nodes = (
(0,-3,l),
(123,0,l),
(246,-3,l),
(246,20,l),
(230,22,ls),
(172,29,o),
(158,31,o),
(158,121,cs),
(158,321,l),
(175,365,o),
(226,424,o),
(299,424,cs),
(362,424,o),
(398,388,o),
(398,321,cs),
(398,121,ls),
(398,31,o),
(384,29,o),
(326,22,cs),
(310,20,l),
(310,-3,l),
(433,0,l),
(556,-3,l),
(556,20,l),
(540,22,ls),
(482,29,o),
(468,31,o),
(468,121,cs),
(468,321,ls),
(468,406,o),
(412,454,o),
(321,454,cs),
(246,454,o),
(189,412,o),
(158,367,c),
(158,725,l),
(103,715,o),
(55,713,o),
(0,713,c),
(0,690,l),
(7,690,ls),
(57,690,o),
(88,678,o),
(88,609,cs),
(88,121,ls),
(88,31,o),
(74,29,o),
(16,22,cs),
(0,20,l)
);
}
);
width = 556;
}
);
metricLeft = "=n";
metricRight = "=n";
note = h;
unicode = 104;
},
{
glyphname = i;
lastChange = "2022-11-17 10:24:29 +0000";
layers = (
{
layerId = m01;
shapes = (
{
closed = 1;
nodes = (
(149,565,o),
(167,592,o),
(167,626,cs),
(167,660,o),
(149,687,o),
(111,687,cs),
(76,687,o),
(55,660,o),
(55,626,cs),
(55,592,o),
(76,565,o),
(111,565,cs)
);
},
{
closed = 1;
nodes = (
(0,-3,l),
(123,0,l),
(246,-3,l),
(246,20,l),
(230,22,ls),
(172,29,o),
(158,31,o),
(158,121,cs),
(158,448,l),
(103,438,o),
(55,436,o),
(0,436,c),
(0,413,l),
(7,413,ls),
(57,413,o),
(88,401,o),
(88,332,cs),
(88,121,ls),
(88,31,o),
(74,29,o),
(16,22,cs),
(0,20,l)
);
}
);
width = 246;
}
);
metricLeft = "=n";
metricRight = "=n";
note = i;
unicode = 105;
},
{
glyphname = j;
lastChange = "2022-11-17 10:24:29 +0000";
layers = (
{
layerId = m01;
shapes = (
{
closed = 1;
nodes = (
(231,559,o),
(249,586,o),
(249,620,cs),
(249,654,o),
(231,681,o),
(193,681,cs),
(158,681,o),
(137,654,o),
(137,620,cs),
(137,586,o),
(158,559,o),
(193,559,cs)
);
},
{
closed = 1;
nodes = (
(178,-294,o),
(236,-237,o),
(236,-152,cs),
(236,451,l),
(181,441,o),
(133,436,o),
(78,436,c),
(78,413,l),
(132,413,o),
(166,407,o),
(166,335,cs),
(166,-152,ls),
(166,-205,o),
(161,-273,o),
(116,-273,cs),
(101,-273,o),
(88,-264,o),
(88,-246,cs),
(88,-240,o),
(89,-235,o),
(92,-226,cs),
(94,-220,o),
(96,-213,o),
(96,-207,cs),
(96,-189,o),
(83,-167,o),
(53,-167,cs),
(18,-167,o),
(0,-193,o),
(0,-223,cs),
(0,-266,o),
(36,-294,o),
(99,-294,cs)
);
}
);
width = 249;
}
);
note = j;
unicode = 106;
},
{
glyphname = k;
lastChange = "2022-11-17 10:24:53 +0000";
layers = (
{
layerId = m01;
shapes = (
{
closed = 1;
nodes = (
(0,-3,l),
(123,0,l),
(246,-3,l),
(246,20,l),
(230,22,ls),
(172,29,o),
(158,31,o),
(158,121,cs),
(158,152,l),
(209,213,l),
(398,0,l),
(509,-3,l),
(509,20,l),
(493,22,ls),
(469,24,o),
(444,53,o),
(424,76,cs),
(254,266,l),
(312,335,ls),
(345,375,o),
(383,405,o),
(443,413,cs),
(459,415,l),
(459,438,l),
(375,436,l),
(279,438,l),
(279,415,l),
(295,413,ls),
(312,411,o),
(319,405,o),
(319,395,cs),
(319,388,o),
(315,378,o),
(306,367,cs),
(158,190,l),
(158,725,l),
(103,715,o),
(55,713,o),
(0,713,c),
(0,690,l),
(7,690,ls),
(57,690,o),
(88,678,o),
(88,609,cs),
(88,121,ls),
(88,31,o),
(74,29,o),
(16,22,cs),
(0,20,l)
);
}
);
width = 509;
}
);
metricLeft = "=n";
note = k;
unicode = 107;
},
{
glyphname = l;
lastChange = "2022-11-17 10:24:29 +0000";
layers = (
{
layerId = m01;
shapes = (
{
closed = 1;
nodes = (
(0,-3,l),
(123,0,l),
(246,-3,l),
(246,20,l),
(230,22,ls),
(172,29,o),
(158,31,o),
(158,121,cs),
(158,725,l),
(103,715,o),
(55,713,o),
(0,713,c),
(0,690,l),
(7,690,ls),
(57,690,o),
(88,678,o),
(88,609,cs),
(88,121,ls),
(88,31,o),
(74,29,o),
(16,22,cs),
(0,20,l)
);
}
);
width = 246;
}
);
metricLeft = "=n";
metricRight = "=n";
note = l;
unicode = 108;
},
{
glyphname = m;
lastChange = "2022-11-17 10:24:53 +0000";
layers = (
{
layerId = m01;
shapes = (
{
closed = 1;
nodes = (
(0,-3,l),
(123,0,l),
(236,-3,l),
(236,20,l),
(220,22,ls),
(170,29,o),
(158,31,o),
(158,121,cs),
(158,321,l),
(174,367,o),
(220,424,o),
(291,424,cs),
(349,424,o),
(383,388,o),
(383,329,cs),
(383,121,ls),
(383,31,o),
(371,29,o),
(321,22,cs),
(305,20,l),
(305,-3,l),
(418,0,l),
(531,-3,l),
(531,20,l),
(515,22,ls),
(465,29,o),
(453,31,o),
(453,121,cs),
(453,312,ls),
(453,315,o),
(453,318,o),
(453,321,c),
(469,367,o),
(515,424,o),
(586,424,cs),
(644,424,o),
(678,388,o),
(678,329,cs),
(678,121,ls),
(678,31,o),
(666,28,o),
(616,22,cs),
(600,20,l),
(600,-3,l),
(713,0,l),
(835,-3,l),
(835,20,l),
(819,22,ls),
(760,29,o),
(748,33,o),
(748,121,cs),
(748,312,ls),
(748,410,o),
(692,454,o),
(606,454,cs),
(532,454,o),
(475,410,o),
(447,361,c),
(431,425,o),
(381,454,o),
(311,454,cs),
(242,454,o),
(187,415,o),
(158,370,c),
(158,448,l),
(103,438,o),
(55,436,o),
(0,436,c),
(0,413,l),
(54,413,o),
(88,404,o),
(88,332,cs),
(88,121,ls),
(88,31,o),
(74,29,o),
(16,22,cs),
(0,20,l)
);
}
);
width = 835;
}
);
metricLeft = "=n";
metricRight = "=n";
note = m;
unicode = 109;
},
{
glyphname = n;
lastChange = "2022-11-17 10:24:53 +0000";
layers = (
{
layerId = m01;
shapes = (
{
closed = 1;
nodes = (
(0,-3,l),
(123,0,l),
(246,-3,l),
(246,20,l),
(230,22,ls),
(172,29,o),
(158,31,o),
(158,121,cs),
(158,321,l),
(175,365,o),
(226,424,o),
(299,424,cs),
(362,424,o),
(398,388,o),
(398,321,cs),
(398,121,ls),
(398,31,o),
(384,29,o),
(326,22,cs),
(310,20,l),
(310,-3,l),
(433,0,l),
(556,-3,l),
(556,20,l),
(540,22,ls),
(482,29,o),
(468,31,o),
(468,121,cs),
(468,321,ls),
(468,406,o),
(412,454,o),
(321,454,cs),
(246,454,o),
(189,412,o),
(158,367,c),
(158,448,l),
(103,438,o),
(55,436,o),
(0,436,c),
(0,413,l),
(7,413,ls),
(57,413,o),
(88,401,o),
(88,332,cs),
(88,121,ls),
(88,31,o),
(74,29,o),
(16,22,cs),
(0,20,l)
);
}
);
width = 556;
}
);
note = n;
unicode = 110;
},
{
glyphname = o;
lastChange = "2022-11-17 10:24:53 +0000";
layers = (
{
layerId = m01;
shapes = (
{
closed = 1;
nodes = (
(359,-11,o),
(460,92,o),
(460,220,cs),
(460,351,o),
(359,454,o),
(230,454,cs),
(101,454,o),
(0,351,o),
(0,220,cs),
(0,92,o),
(101,-11,o),
(230,-11,cs)
);
},
{
closed = 1;
nodes = (
(122,14,o),
(80,104,o),
(80,220,cs),
(80,339,o),
(122,429,o),
(230,429,cs),
(338,429,o),
(380,339,o),
(380,220,cs),
(380,104,o),
(338,14,o),
(230,14,cs)
);
}
);
width = 460;
}
);
note = o;
unicode = 111;
},
{
glyphname = oe;
lastChange = "2022-11-17 10:24:53 +0000";
layers = (
{
layerId = m01;
shapes = (
{
closed = 1;
nodes = (
(305,-11,o),
(371,24,o),
(413,79,c),
(450,23,o),
(514,-11,o),
(594,-11,cs),
(685,-11,o),
(744,31,o),
(772,115,c),
(748,124,l),
(721,54,o),
(670,19,o),
(608,19,cs),
(518,19,o),
(467,91,o),
(457,182,c),
(459,194,o),
(460,207,o),
(460,220,cs),
(460,229,o),
(460,237,o),
(459,245,c),
(758,245,l),
(759,249,o),
(761,260,o),
(761,276,cs),
(761,382,o),
(699,454,o),
(597,454,cs),
(524,454,o),
(458,417,o),
(418,357,c),
(376,416,o),
(308,454,o),
(230,454,cs),
(101,454,o),
(0,351,o),
(0,220,cs),
(0,92,o),
(101,-11,o),
(230,-11,cs)
);
},
{
closed = 1;
nodes = (
(122,14,o),
(80,104,o),
(80,220,cs),
(80,339,o),
(122,429,o),
(230,429,cs),
(327,429,o),
(370,357,o),
(379,257,c),
(376,242,o),
(375,227,o),
(375,212,cs),
(375,199,o),
(376,186,o),
(378,174,c),
(367,81,o),
(323,14,o),
(230,14,cs)
);
},
{
closed = 1;
nodes = (
(646,429,o),
(694,393,o),
(694,335,cs),
(694,305,o),
(675,268,o),
(585,268,cs),
(458,268,l),
(469,365,o),
(515,429,o),
(597,429,cs)
);
}
);
width = 772;
}
);
note = oe;
unicode = 339;
},
{
glyphname = p;
lastChange = "2022-11-17 10:24:53 +0000";
layers = (
{
layerId = m01;
shapes = (
{
closed = 1;
nodes = (
(0,-283,l),
(123,-280,l),
(246,-283,l),
(246,-260,l),
(230,-258,ls),
(172,-251,o),
(158,-249,o),
(158,-159,cs),
(158,46,l),
(188,16,o),
(237,-11,o),
(293,-11,cs),
(412,-11,o),
(500,91,o),
(500,220,cs),
(500,351,o),
(412,454,o),
(297,454,cs),
(236,454,o),
(188,425,o),
(151,383,c),
(158,451,l),
(103,441,o),
(55,436,o),
(0,436,c),
(0,413,l),
(54,413,o),
(88,407,o),
(88,335,cs),
(88,-159,ls),
(88,-249,o),
(74,-251,o),
(16,-258,cs),
(0,-260,l)
);
},
{
closed = 1;
nodes = (
(376,424,o),
(420,336,o),
(420,220,cs),
(420,106,o),
(376,19,o),
(284,19,cs),
(229,19,o),
(180,53,o),
(158,87,c),
(158,357,l),
(188,394,o),
(230,424,o),
(285,424,cs)
);
}
);
width = 500;
}
);
metricLeft = "=n";
metricRight = "=o";
note = p;
unicode = 112;
},
{
glyphname = q;
lastChange = "2022-11-17 10:24:53 +0000";
layers = (
{
layerId = m01;
shapes = (
{
closed = 1;
nodes = (
(260,-11,o),
(307,14,o),
(342,52,c),
(342,-159,ls),
(342,-249,o),
(328,-251,o),
(270,-258,cs),
(254,-260,l),
(254,-283,l),
(377,-280,l),
(500,-283,l),
(500,-260,l),
(484,-258,ls),
(426,-251,o),
(412,-249,o),
(412,-159,cs),
(412,449,l),
(397,449,l),
(345,393,l),
(315,425,o),
(265,454,o),
(207,454,cs),
(88,454,o),
(0,352,o),
(0,223,cs),
(0,92,o),
(88,-11,o),
(203,-11,cs)
);
},
{
closed = 1;
nodes = (
(80,337,o),
(124,424,o),
(216,424,cs),
(271,424,o),
(320,390,o),
(342,356,c),
(342,86,l),
(312,49,o),
(270,19,o),
(213,19,cs),
(124,19,o),
(80,107,o),
(80,223,cs)
);
}
);
width = 500;
}
);
metricLeft = "=o";
metricRight = "=n-10";
note = q;
unicode = 113;
},
{
glyphname = r;
lastChange = "2022-11-17 10:24:53 +0000";
layers = (
{
layerId = m01;
shapes = (
{
closed = 1;
nodes = (
(0,-3,l),
(123,0,l),
(246,-3,l),
(246,20,l),
(230,22,ls),
(172,29,o),
(158,31,o),
(158,121,cs),
(158,279,l),
(165,315,o),
(176,346,o),
(188,371,cs),
(203,401,o),
(225,420,o),
(244,420,cs),
(252,420,o),
(258,417,o),
(258,410,cs),
(258,403,o),
(253,390,o),
(253,377,cs),
(253,360,o),
(268,344,o),
(296,344,cs),
(325,344,o),
(344,365,o),
(344,394,cs),
(344,419,o),
(330,454,o),
(274,454,cs),
(225,454,o),
(180,422,o),
(151,333,c),
(147,333,l),
(158,448,l),
(103,440,o),
(55,436,o),
(0,436,c),
(0,413,l),
(54,413,o),
(88,407,o),
(88,329,cs),
(88,121,ls),
(88,31,o),
(74,29,o),
(16,22,cs),
(0,20,l)
);
}
);
width = 344;
}
);
metricLeft = "=n";
note = r;
unicode = 114;
},
{
glyphname = s;
lastChange = "2022-11-17 10:24:53 +0000";
layers = (
{
layerId = m01;
shapes = (
{
closed = 1;
nodes = (
(251,-11,o),
(301,51,o),
(301,122,cs),
(301,182,o),
(274,224,o),
(193,255,cs),
(154,270,ls),
(99,291,o),
(66,316,o),
(66,358,cs),
(66,401,o),
(100,432,o),
(144,432,cs),
(206,432,o),
(239,379,o),
(248,316,c),
(271,316,l),
(271,386,l),
(275,451,l),
(253,452,l),
(249,438,o),
(245,431,o),
(237,431,cs),
(233,431,o),
(228,432,o),
(220,436,cs),
(204,444,o),
(181,454,o),
(148,454,cs),
(78,454,o),
(15,404,o),
(15,325,cs),
(15,262,o),
(50,225,o),
(120,198,cs),
(156,184,ls),
(216,161,o),
(252,134,o),
(252,91,cs),
(252,42,o),
(215,12,o),
(161,12,cs),
(85,12,o),
(33,78,o),
(30,134,cs),
(29,151,l),
(7,151,l),
(4,66,l),
(0,0,l),
(23,0,l),
(27,19,o),
(29,21,o),
(35,21,cs),
(39,21,o),
(45,18,o),
(55,13,cs),
(75,4,o),
(110,-11,o),
(161,-11,cs)
);
}
);
width = 301;
}
);
note = s;
unicode = 115;
},
{
glyphname = germandbls;
lastChange = "2022-11-17 10:24:53 +0000";
layers = (
{
layerId = m01;
shapes = (
{
closed = 1;
nodes = (
(473,-11,o),
(548,70,o),
(548,140,cs),
(548,229,o),
(468,284,o),
(418,318,cs),
(362,356,o),
(329,396,o),
(329,426,cs),
(329,456,o),
(363,489,o),
(395,520,cs),
(422,546,o),
(446,574,o),
(446,608,cs),
(446,672,o),
(375,724,o),
(279,724,cs),
(165,724,o),
(88,675,o),
(88,498,cs),
(88,436,l),
(2,436,l),
(2,413,l),
(88,413,l),
(88,121,ls),
(88,31,o),
(74,29,o),
(16,22,cs),
(0,20,l),
(0,-3,l),
(123,0,l),
(169,0,l),
(162,33,o),
(159,65,o),
(159,121,cs),
(159,550,ls),
(159,632,o),
(186,699,o),
(265,699,cs),
(319,699,o),
(366,665,o),
(366,586,cs),
(366,538,o),
(334,493,o),
(310,469,cs),
(284,443,o),
(263,421,o),
(263,389,cs),
(263,344,o),
(315,302,o),
(361,271,cs),
(417,233,o),
(470,192,o),
(470,123,cs),
(470,65,o),
(433,14,o),
(366,14,cs),
(324,14,o),
(303,31,o),
(303,59,cs),
(303,66,o),
(304,74,o),
(306,83,cs),
(308,90,o),
(310,101,o),
(310,107,cs),
(310,132,o),
(287,149,o),
(264,149,cs),
(234,149,o),
(216,126,o),
(216,93,cs),
(216,47,o),
(264,-11,o),
(376,-11,cs)
);
}
);
width = 548;
}
);
note = germandbls;
unicode = 223;
},
{
glyphname = t;
lastChange = "2022-11-17 10:24:53 +0000";
layers = (
{
layerId = m01;
shapes = (
{
closed = 1;
nodes = (
(216,-11,o),
(245,-1,o),
(268,24,cs),
(279,36,o),
(291,53,o),
(299,73,c),
(277,84,l),
(260,49,o),
(240,23,o),
(206,23,cs),
(165,23,o),
(144,52,o),
(144,111,cs),
(144,411,l),
(272,411,l),
(272,436,l),
(144,436,l),
(144,557,l),
(118,557,l),
(109,484,o),
(82,442,o),
(27,438,cs),
(0,436,l),
(0,411,l),
(74,411,l),
(74,115,ls),
(74,25,o),
(119,-11,o),
(184,-11,cs)
);
}
);
width = 299;
}
);
note = t;
unicode = 116;
},
{
glyphname = u;
lastChange = "2022-11-17 10:24:53 +0000";
layers = (
{
layerId = m01;
shapes = (
{
closed = 1;
nodes = (
(293,-11,o),
(342,16,o),
(377,55,cs),
(385,64,o),
(392,73,o),
(398,83,c),
(398,-9,l),
(456,1,o),
(496,1,o),
(551,1,c),
(551,24,l),
(497,24,o),
(468,35,o),
(468,111,cs),
(468,434,l),
(433,433,l),
(310,436,l),
(310,413,l),
(326,411,ls),
(384,404,o),
(398,402,o),
(398,312,cs),
(398,133,l),
(374,78,o),
(324,21,o),
(251,21,cs),
(194,21,o),
(158,56,o),
(158,122,cs),
(158,434,l),
(123,433,l),
(0,436,l),
(0,413,l),
(16,411,ls),
(74,404,o),
(88,402,o),
(88,312,cs),
(88,118,ls),
(88,33,o),
(141,-11,o),
(228,-11,cs)
);
}
);
width = 551;
}
);
metricLeft = "=n";
metricRight = "=n";
note = u;
unicode = 117;
},
{
glyphname = v;
lastChange = "2022-11-17 10:24:53 +0000";
layers = (
{
layerId = m01;
shapes = (
{
closed = 1;
nodes = (
(242,0,l),
(280,0,l),
(424,336,ls),
(444,383,o),
(459,405,o),
(497,410,cs),
(520,413,l),
(520,436,l),
(436,433,l),
(346,436,l),
(346,413,l),
(363,411,ls),
(395,407,o),
(409,398,o),
(409,379,cs),
(409,370,o),
(406,359,o),
(400,346,cs),
(283,72,l),
(157,350,ls),
(152,362,o),
(149,372,o),
(149,380,cs),
(149,397,o),
(159,407,o),
(189,411,cs),
(205,413,l),
(205,436,l),
(103,433,l),
(0,436,l),
(0,413,l),
(18,411,ls),
(53,407,o),
(67,386,o),
(79,360,cs)
);
}
);
width = 520;
}
);
note = v;
unicode = 118;
},
{
glyphname = w;
lastChange = "2022-11-17 10:24:53 +0000";
layers = (
{
layerId = m01;
shapes = (
{
closed = 1;
nodes = (
(203,0,l),
(241,0,l),
(388,335,l),
(518,0,l),
(556,0,l),
(690,339,ls),
(704,373,o),
(718,405,o),
(765,411,cs),
(781,413,l),
(781,436,l),
(702,433,l),
(608,436,l),
(608,413,l),
(624,411,ls),
(657,407,o),
(673,397,o),
(673,375,cs),
(673,367,o),
(667,351,o),
(664,342,cs),
(560,78,l),
(456,344,ls),
(451,357,o),
(448,369,o),
(448,378,cs),
(448,396,o),
(458,410,o),
(482,412,cs),
(497,413,l),
(497,436,l),
(451,436,ls),
(429,436,o),
(395,428,o),
(386,406,c),
(375,424,o),
(357,436,o),
(332,436,cs),
(297,436,l),
(297,413,l),
(328,412,ls),
(355,411,o),
(369,396,o),
(369,369,cs),
(369,358,o),
(364,344,o),
(357,328,cs),
(246,77,l),
(149,346,ls),
(145,357,o),
(144,366,o),
(144,374,cs),
(144,397,o),
(160,409,o),
(194,412,cs),
(204,413,l),
(204,436,l),
(106,433,l),
(0,436,l),
(0,413,l),
(11,412,ls),
(44,409,o),
(64,383,o),
(80,339,cs)
);
}
);
width = 781;
}
);
note = w;
unicode = 119;
},
{
glyphname = x;
lastChange = "2022-11-17 10:24:53 +0000";
layers = (
{
layerId = m01;
shapes = (
{
closed = 1;
nodes = (
(0,-3,l),
(97,0,l),
(191,-3,l),
(191,21,l),
(175,23,ls),
(150,26,o),
(140,38,o),
(140,52,cs),
(140,62,o),
(147,74,o),
(156,84,cs),
(245,187,l),
(349,73,ls),
(359,62,o),
(362,52,o),
(362,45,cs),
(362,32,o),
(349,26,o),
(323,23,cs),
(307,21,l),
(307,-2,l),
(431,0,l),
(530,-2,l),
(530,20,l),
(519,22,ls),
(480,29,o),
(446,66,o),
(415,100,cs),
(294,233,l),
(379,329,ls),
(414,368,o),
(452,407,o),
(507,412,cs),
(518,413,l),
(518,436,l),
(442,433,l),
(326,436,l),
(326,413,l),
(332,412,ls),
(359,408,o),
(382,396,o),
(382,380,cs),
(382,371,o),
(378,361,o),
(368,350,cs),
(279,250,l),
(188,350,ls),
(175,365,o),
(171,372,o),
(171,382,cs),
(171,401,o),
(203,408,o),
(212,410,cs),
(228,413,l),
(228,436,l),
(116,433,l),
(4,436,l),
(4,413,l),
(13,412,ls),
(41,409,o),
(57,394,o),
(89,359,cs),
(230,204,l),
(142,105,ls),
(110,69,o),
(74,31,o),
(13,22,cs),
(0,20,l)
);
}
);
width = 530;
}
);
note = x;
unicode = 120;
},
{
glyphname = y;
lastChange = "2022-11-17 10:24:53 +0000";
layers = (
{
layerId = m01;
shapes = (
{
closed = 1;
nodes = (
(151,-294,o),
(196,-232,o),
(228,-163,cs),
(454,330,ls),
(473,372,o),
(489,404,o),
(538,411,cs),
(553,413,l),
(553,436,l),
(473,433,l),
(377,436,l),
(377,413,l),
(393,411,ls),
(427,407,o),
(442,398,o),
(442,378,cs),
(442,368,o),
(438,355,o),
(431,339,cs),
(306,70,l),
(181,344,ls),
(174,359,o),
(170,371,o),
(170,380,cs),
(170,398,o),
(182,407,o),
(212,411,cs),
(226,413,l),
(226,436,l),
(125,433,l),
(21,436,l),
(21,413,l),
(44,410,ls),
(77,406,o),
(89,384,o),
(103,354,cs),
(269,-10,l),
(203,-152,ls),
(175,-211,o),
(149,-224,o),
(125,-224,cs),
(109,-224,o),
(97,-215,o),
(88,-208,cs),
(79,-201,o),
(69,-194,o),
(51,-194,cs),
(22,-194,o),
(0,-215,o),
(0,-241,cs),
(0,-268,o),
(22,-294,o),
(68,-294,cs)
);
}
);
width = 553;
}
);
note = y;
unicode = 121;
},
{
glyphname = z;
lastChange = "2022-11-17 10:24:29 +0000";
layers = (
{
layerId = m01;
shapes = (
{
closed = 1;
nodes = (
(7,0,l),
(378,0,l),
(379,53,l),
(391,158,l),
(368,158,l),
(353,43,o),
(286,25,o),
(197,25,cs),
(89,25,l),
(393,417,l),
(386,436,l),
(40,436,l),
(29,365,l),
(7,275,l),
(30,275,l),
(52,389,o),
(117,412,o),
(230,412,cs),
(303,412,l),
(0,20,l)
);
}
);
width = 393;
}
);
note = z;
unicode = 122;
},
{
glyphname = f_b.liga;
lastChange = "2022-11-17 10:24:53 +0000";
layers = (
{
layerId = m01;
shapes = (
{
closed = 1;
nodes = (
(0,-3,l),
(123,0,l),
(240,-3,l),
(240,20,l),
(224,22,ls),
(173,28,o),
(158,31,o),
(158,121,cs),
(158,411,l),
(250,411,l),
(250,436,l),
(158,436,l),
(158,485,ls),
(158,611,o),
(178,699,o),
(282,699,cs),
(326,699,o),
(375,677,o),
(375,594,cs),
(375,0,l),
(395,0,l),
(445,50,l),
(445,52,l),
(477,14,o),
(522,-11,o),
(577,-11,cs),
(699,-11,o),
(787,91,o),
(787,220,cs),
(787,351,o),
(699,454,o),
(577,454,cs),
(520,454,o),
(476,430,o),
(445,389,c),
(445,725,l),
(381,694,l),
(359,712,o),
(322,724,o),
(283,724,cs),
(132,724,o),
(88,611,o),
(88,485,cs),
(88,436,l),
(2,436,l),
(2,411,l),
(88,411,l),
(88,121,ls),
(88,31,o),
(74,29,o),
(16,22,cs),
(0,20,l)
);
},
{
closed = 1;
nodes = (
(519,19,o),
(474,47,o),
(445,90,c),
(445,356,l),
(474,400,o),
(519,429,o),
(577,429,cs),
(663,429,o),
(707,339,o),
(707,220,cs),
(707,106,o),
(663,19,o),
(577,19,cs)
);
}
);
width = 787;
}
);
note = f_b.liga;
},
{
glyphname = f_f.liga;
lastChange = "2022-11-17 10:24:53 +0000";
layers = (
{
layerId = m01;
shapes = (
{
closed = 1;
nodes = (
(8,-3,l),
(131,0,l),
(245,-3,l),
(245,20,l),
(229,22,ls),
(177,28,o),
(166,31,o),
(166,121,cs),
(166,411,l),
(383,411,l),
(383,121,ls),
(383,31,o),
(369,29,o),
(311,22,cs),
(295,20,l),
(295,-3,l),
(418,0,l),
(541,-3,l),
(541,20,l),
(525,22,ls),
(467,29,o),
(453,31,o),
(453,121,cs),
(453,411,l),
(556,411,l),
(556,436,l),
(453,436,l),
(453,550,ls),
(453,632,o),
(467,699,o),
(543,699,cs),
(560,699,o),
(578,692,o),
(578,675,cs),
(578,671,o),
(577,667,o),
(575,662,cs),
(572,654,o),
(569,645,o),
(569,632,cs),
(569,611,o),
(588,590,o),
(613,590,cs),
(640,590,o),
(662,608,o),
(662,643,cs),
(662,696,o),
(611,724,o),
(543,724,cs),
(481,724,o),
(436,706,o),
(410,665,c),
(376,686,o),
(328,693,o),
(298,693,cs),
(162,693,o),
(96,610,o),
(96,452,cs),
(96,436,l),
(0,436,l),
(0,411,l),
(96,411,l),
(96,121,ls),
(96,31,o),
(82,29,o),
(24,22,cs),
(8,20,l)
);
},
{
closed = 1;
nodes = (
(166,470,ls),
(166,595,o),
(195,669,o),
(290,669,cs),
(341,669,o),
(370,641,o),
(388,606,c),
(385,589,o),
(383,571,o),
(383,550,cs),
(383,436,l),
(166,436,l)
);
}
);
width = 662;
}
);
note = f_f.liga;
},
{
glyphname = f_f_b.liga;
lastChange = "2022-11-17 10:24:53 +0000";
layers = (
{
layerId = m01;
shapes = (
{
closed = 1;
nodes = (
(8,-3,l),
(131,0,l),
(245,-3,l),
(245,20,l),
(229,22,ls),
(177,28,o),
(166,31,o),
(166,121,cs),
(166,411,l),
(376,411,l),
(376,121,ls),
(376,31,o),
(362,29,o),
(304,22,cs),
(288,20,l),
(288,-3,l),
(411,0,l),
(528,-3,l),
(528,20,l),
(512,22,ls),
(461,28,o),
(446,31,o),
(446,121,cs),
(446,411,l),
(538,411,l),
(538,436,l),
(446,436,l),
(446,485,ls),
(446,611,o),
(466,699,o),
(570,699,cs),
(614,699,o),
(663,677,o),
(663,594,cs),
(663,0,l),
(683,0,l),
(733,50,l),
(733,52,l),
(765,14,o),
(810,-11,o),
(865,-11,cs),
(987,-11,o),
(1075,91,o),
(1075,220,cs),
(1075,351,o),
(987,454,o),
(865,454,cs),
(808,454,o),
(764,430,o),
(733,389,c),
(733,725,l),
(669,694,l),
(647,712,o),
(610,724,o),
(571,724,cs),
(499,724,o),
(451,698,o),
(421,657,c),
(387,684,o),
(331,693,o),
(298,693,cs),
(162,693,o),
(96,610,o),
(96,452,cs),
(96,436,l),
(0,436,l),
(0,411,l),
(96,411,l),
(96,121,ls),
(96,31,o),
(82,29,o),
(24,22,cs),
(8,20,l)
);
},
{
closed = 1;
nodes = (
(166,470,ls),
(166,595,o),
(195,669,o),
(290,669,cs),
(345,669,o),
(375,637,o),
(391,598,c),
(380,564,o),
(376,525,o),
(376,485,cs),
(376,436,l),
(166,436,l)
);
},
{
closed = 1;
nodes = (
(807,19,o),
(762,47,o),
(733,90,c),
(733,356,l),
(762,400,o),
(807,429,o),
(865,429,cs),
(951,429,o),
(995,339,o),
(995,220,cs),
(995,106,o),
(951,19,o),
(865,19,cs)
);
}
);
width = 1075;
}
);
note = f_f_b.liga;
},
{
glyphname = f_f_h.liga;
lastChange = "2022-11-17 10:24:53 +0000";
layers = (
{
layerId = m01;
shapes = (
{
closed = 1;
nodes = (
(8,-3,l),
(131,0,l),
(245,-3,l),
(245,20,l),
(229,22,ls),
(177,28,o),
(166,31,o),
(166,121,cs),
(166,411,l),
(371,411,l),
(371,121,ls),
(371,31,o),
(357,29,o),
(299,22,cs),
(283,20,l),
(283,-3,l),
(406,0,l),
(523,-3,l),
(523,20,l),
(507,22,ls),
(456,28,o),
(441,31,o),
(441,121,cs),
(441,411,l),
(533,411,l),
(533,436,l),
(441,436,l),
(441,485,ls),
(441,611,o),
(461,699,o),
(565,699,cs),
(609,699,o),
(658,677,o),
(658,594,cs),
(658,121,ls),
(658,31,o),
(645,29,o),
(591,22,cs),
(576,20,l),
(576,-3,l),
(691,0,l),
(693,0,l),
(816,-3,l),
(816,20,l),
(800,22,ls),
(742,29,o),
(728,31,o),
(728,121,cs),
(728,321,l),
(745,365,o),
(796,424,o),
(869,424,cs),
(932,424,o),
(968,388,o),
(968,321,cs),
(968,121,ls),
(968,31,o),
(954,29,o),
(896,22,cs),
(880,20,l),
(880,-3,l),
(1003,0,l),
(1126,-3,l),
(1126,20,l),
(1110,22,ls),
(1052,29,o),
(1038,31,o),
(1038,121,cs),
(1038,321,ls),
(1038,406,o),
(982,454,o),
(891,454,cs),
(816,454,o),
(759,412,o),
(728,367,c),
(728,725,l),
(664,694,l),
(642,712,o),
(605,724,o),
(566,724,cs),
(495,724,o),
(448,699,o),
(418,660,c),
(383,685,o),
(330,693,o),
(298,693,cs),
(162,693,o),
(96,610,o),
(96,452,cs),
(96,436,l),
(0,436,l),
(0,411,l),
(96,411,l),
(96,121,ls),
(96,31,o),
(82,29,o),
(24,22,cs),
(8,20,l)
);
},
{
closed = 1;
nodes = (
(166,470,ls),
(166,595,o),
(195,669,o),
(290,669,cs),
(342,669,o),
(371,641,o),
(388,604,c),
(376,568,o),
(371,527,o),
(371,485,cs),
(371,436,l),
(166,436,l)
);
}
);
width = 1126;
}
);
note = f_f_h.liga;
},
{
glyphname = f_f_i.liga;
lastChange = "2022-11-17 10:24:29 +0000";
layers = (
{
layerId = m01;
shapes = (
{
closed = 1;
nodes = (
(8,-3,l),
(131,0,l),
(245,-3,l),
(245,20,l),
(229,22,ls),
(177,28,o),
(166,31,o),
(166,121,cs),
(166,411,l),
(368,411,l),
(368,121,ls),
(368,31,o),
(354,29,o),
(296,22,cs),
(280,20,l),
(280,-3,l),
(403,0,l),
(512,-3,l),
(512,20,l),
(496,22,ls),
(449,29,o),
(438,31,o),
(438,121,cs),
(438,411,l),
(594,411,l),
(627,406,o),
(646,387,o),
(646,332,cs),
(646,121,ls),
(646,31,o),
(632,29,o),
(574,22,cs),
(558,20,l),
(558,-3,l),
(681,0,l),
(804,-3,l),
(804,20,l),
(788,22,ls),
(730,29,o),
(716,31,o),
(716,121,cs),
(716,448,l),
(661,438,o),
(613,436,o),
(558,436,cs),
(438,436,l),
(438,499,ls),
(438,599,o),
(452,699,o),
(558,699,cs),
(606,699,o),
(643,666,o),
(643,636,cs),
(643,617,o),
(624,615,o),
(624,591,cs),
(624,567,o),
(644,551,o),
(668,551,cs),
(698,551,o),
(717,573,o),
(717,607,cs),
(717,687,o),
(632,724,o),
(558,724,cs),
(487,724,o),
(441,701,o),
(412,664,c),
(377,686,o),
(328,693,o),
(298,693,cs),
(162,693,o),
(96,610,o),
(96,452,cs),
(96,436,l),
(0,436,l),
(0,411,l),
(96,411,l),
(96,121,ls),
(96,31,o),
(82,29,o),
(24,22,cs),
(8,20,l)
);
},
{
closed = 1;
nodes = (
(166,470,ls),
(166,595,o),
(195,669,o),
(290,669,cs),
(337,669,o),
(366,645,o),
(384,613,c),
(372,580,o),
(368,542,o),
(368,504,cs),
(368,436,l),
(166,436,l)
);
}
);
width = 804;
}
);
note = f_f_i.liga;
},
{
glyphname = f_f_j.liga;
lastChange = "2022-11-17 10:24:29 +0000";
layers = (
{
layerId = m01;
shapes = (
{
closed = 1;
nodes = (
(8,-3,l),
(131,0,l),
(245,-3,l),
(245,20,l),
(229,22,ls),
(177,28,o),
(166,31,o),
(166,121,cs),
(166,411,l),
(376,411,l),
(376,121,ls),
(376,31,o),
(362,29,o),
(304,22,cs),
(288,20,l),
(288,-3,l),
(411,0,l),
(520,-3,l),
(520,20,l),
(504,22,ls),
(457,29,o),
(446,31,o),
(446,121,cs),
(446,411,l),
(600,411,l),
(633,406,o),
(652,389,o),
(652,335,cs),
(652,-152,ls),
(652,-205,o),
(647,-273,o),
(602,-273,cs),
(587,-273,o),
(574,-264,o),
(574,-246,cs),
(574,-240,o),
(575,-235,o),
(578,-226,cs),
(580,-220,o),
(582,-213,o),
(582,-207,cs),
(582,-189,o),
(569,-167,o),
(539,-167,cs),
(504,-167,o),
(486,-193,o),
(486,-223,cs),
(486,-266,o),
(522,-294,o),
(585,-294,cs),
(664,-294,o),
(722,-237,o),
(722,-152,cs),
(722,451,l),
(667,441,o),
(619,436,o),
(564,436,cs),
(446,436,l),
(446,499,ls),
(446,599,o),
(460,699,o),
(566,699,cs),
(614,699,o),
(651,666,o),
(651,636,cs),
(651,617,o),
(632,615,o),
(632,591,cs),
(632,567,o),
(652,551,o),
(676,551,cs),
(706,551,o),
(725,573,o),
(725,607,cs),
(725,687,o),
(640,724,o),
(566,724,cs),
(493,724,o),
(446,699,o),
(417,660,c),
(382,685,o),
(330,693,o),
(298,693,cs),
(162,693,o),
(96,610,o),
(96,452,cs),
(96,436,l),
(0,436,l),
(0,411,l),
(96,411,l),
(96,121,ls),
(96,31,o),
(82,29,o),
(24,22,cs),
(8,20,l)
);
},
{
closed = 1;
nodes = (
(166,470,ls),
(166,595,o),
(195,669,o),
(290,669,cs),
(342,669,o),
(372,640,o),
(389,603,c),
(380,573,o),
(376,539,o),
(376,504,cs),
(376,436,l),
(166,436,l)
);
}
);
width = 725;
}
);
note = f_f_j.liga;
},
{
glyphname = f_f_k.liga;
lastChange = "2022-11-17 10:24:53 +0000";
layers = (
{
layerId = m01;
shapes = (
{
closed = 1;
nodes = (
(8,-3,l),
(131,0,l),
(245,-3,l),
(245,20,l),
(229,22,ls),
(177,28,o),
(166,31,o),
(166,121,cs),
(166,411,l),
(375,411,l),
(375,121,ls),
(375,31,o),
(361,29,o),
(303,22,cs),
(287,20,l),
(287,-3,l),
(410,0,l),
(527,-3,l),
(527,20,l),
(511,22,ls),
(460,28,o),
(445,31,o),
(445,121,cs),
(445,411,l),
(537,411,l),
(537,436,l),
(445,436,l),
(445,485,ls),
(445,611,o),
(465,699,o),
(569,699,cs),
(613,699,o),
(662,677,o),
(662,594,cs),
(662,121,ls),
(662,31,o),
(648,29,o),
(590,22,cs),
(574,20,l),
(574,-3,l),
(697,0,l),
(820,-3,l),
(820,20,l),
(804,22,ls),
(746,29,o),
(732,31,o),
(732,121,cs),
(732,154,l),
(782,214,l),
(972,0,l),
(1083,-3,l),
(1083,20,l),
(1067,22,ls),
(1043,25,o),
(1018,53,o),
(998,76,cs),
(827,268,l),
(883,335,ls),
(917,375,o),
(957,405,o),
(1017,413,cs),
(1033,415,l),
(1033,438,l),
(949,436,l),
(853,438,l),
(853,415,l),
(869,413,ls),
(886,411,o),
(893,405,o),
(893,395,cs),
(893,388,o),
(889,378,o),
(880,367,cs),
(732,188,l),
(732,725,l),
(668,694,l),
(646,712,o),
(609,724,o),
(570,724,cs),
(498,724,o),
(450,698,o),
(420,658,c),
(386,685,o),
(331,693,o),
(298,693,cs),
(162,693,o),
(96,610,o),
(96,452,cs),
(96,436,l),
(0,436,l),
(0,411,l),
(96,411,l),
(96,121,ls),
(96,31,o),
(82,29,o),
(24,22,cs),
(8,20,l)
);
},
{
closed = 1;
nodes = (
(166,470,ls),
(166,595,o),
(195,669,o),
(290,669,cs),
(344,669,o),
(374,638,o),
(391,599,c),
(380,565,o),
(375,525,o),
(375,485,cs),
(375,436,l),
(166,436,l)
);
}
);
width = 1083;
}
);
note = f_f_k.liga;
},
{
glyphname = f_f_l.liga;
lastChange = "2022-11-17 10:24:29 +0000";
layers = (
{
layerId = m01;
shapes = (
{
closed = 1;
nodes = (
(8,-3,l),
(131,0,l),
(245,-3,l),
(245,20,l),
(229,22,ls),
(177,28,o),
(166,31,o),
(166,121,cs),
(166,411,l),
(371,411,l),
(371,121,ls),
(371,31,o),
(357,29,o),
(299,22,cs),
(283,20,l),
(283,-3,l),
(406,0,l),
(523,-3,l),
(523,20,l),
(507,22,ls),
(456,28,o),
(441,31,o),
(441,121,cs),
(441,411,l),
(533,411,l),
(533,436,l),
(441,436,l),
(441,485,ls),
(441,611,o),
(461,699,o),
(565,699,cs),
(609,699,o),
(658,677,o),
(658,594,cs),
(658,121,ls),
(658,31,o),
(644,29,o),
(598,22,cs),
(582,20,l),
(582,-3,l),
(693,0,l),
(816,-3,l),
(816,20,l),
(800,22,ls),
(742,29,o),
(728,31,o),
(728,121,cs),
(728,725,l),
(664,694,l),
(642,712,o),
(605,724,o),
(566,724,cs),
(495,724,o),
(448,699,o),
(418,660,c),
(383,685,o),
(330,693,o),
(298,693,cs),
(162,693,o),
(96,610,o),
(96,452,cs),
(96,436,l),
(0,436,l),
(0,411,l),
(96,411,l),
(96,121,ls),
(96,31,o),
(82,29,o),
(24,22,cs),
(8,20,l)
);
},
{
closed = 1;
nodes = (
(166,470,ls),
(166,595,o),
(195,669,o),
(290,669,cs),
(342,669,o),
(371,641,o),
(388,604,c),
(376,568,o),
(371,527,o),
(371,485,cs),
(371,436,l),
(166,436,l)
);
}
);
width = 816;
}
);
note = f_f_l.liga;
},
{
glyphname = f_h.liga;
lastChange = "2022-11-17 10:24:53 +0000";
layers = (
{
layerId = m01;
shapes = (
{
closed = 1;
nodes = (
(0,-3,l),
(123,0,l),
(240,-3,l),
(240,20,l),
(224,22,ls),
(173,28,o),
(158,31,o),
(158,121,cs),
(158,411,l),
(250,411,l),
(250,436,l),
(158,436,l),
(158,485,ls),
(158,611,o),
(178,699,o),
(282,699,cs),
(326,699,o),
(375,677,o),
(375,594,cs),
(375,121,ls),
(375,31,o),
(362,29,o),
(308,22,cs),
(293,20,l),
(293,-3,l),
(408,0,l),
(410,0,l),
(533,-3,l),
(533,20,l),
(517,22,ls),
(459,29,o),
(445,31,o),
(445,121,cs),
(445,321,l),
(462,365,o),
(513,424,o),
(586,424,cs),
(649,424,o),
(685,388,o),
(685,321,cs),
(685,121,ls),
(685,31,o),
(671,29,o),
(613,22,cs),
(597,20,l),
(597,-3,l),
(720,0,l),
(843,-3,l),
(843,20,l),
(827,22,ls),
(769,29,o),
(755,31,o),
(755,121,cs),
(755,321,ls),
(755,406,o),
(699,454,o),
(608,454,cs),
(533,454,o),
(476,412,o),
(445,367,c),
(445,725,l),
(381,694,l),
(359,712,o),
(322,724,o),
(283,724,cs),
(132,724,o),
(88,611,o),
(88,485,cs),
(88,436,l),
(2,436,l),
(2,411,l),
(88,411,l),
(88,121,ls),
(88,31,o),
(74,29,o),
(16,22,cs),
(0,20,l)
);
}
);
width = 843;
}
);
note = f_h.liga;
},
{
glyphname = f_j.liga;
lastChange = "2022-11-17 10:24:29 +0000";
layers = (
{
layerId = m01;
shapes = (
{
closed = 1;
nodes = (
(8,-3,l),
(131,0,l),
(240,-3,l),
(240,20,l),
(224,22,ls),
(177,29,o),
(166,31,o),
(166,121,cs),
(166,411,l),
(320,411,l),
(353,406,o),
(372,389,o),
(372,335,cs),
(372,-152,ls),
(372,-205,o),
(367,-273,o),
(322,-273,cs),
(307,-273,o),
(294,-264,o),
(294,-246,cs),
(294,-240,o),
(295,-235,o),
(298,-226,cs),
(300,-220,o),
(302,-213,o),
(302,-207,cs),
(302,-189,o),
(289,-167,o),
(259,-167,cs),
(224,-167,o),
(206,-193,o),
(206,-223,cs),
(206,-266,o),
(242,-294,o),
(305,-294,cs),
(384,-294,o),
(442,-237,o),
(442,-152,cs),
(442,451,l),
(387,441,o),
(339,436,o),
(284,436,cs),
(166,436,l),
(166,499,ls),
(166,599,o),
(180,699,o),
(286,699,cs),
(334,699,o),
(371,666,o),
(371,636,cs),
(371,617,o),
(352,615,o),
(352,591,cs),
(352,567,o),
(372,551,o),
(396,551,cs),
(426,551,o),
(445,573,o),
(445,607,cs),
(445,687,o),
(360,724,o),
(286,724,cs),
(134,724,o),
(96,617,o),
(96,504,cs),
(96,436,l),
(0,436,l),
(0,411,l),
(96,411,l),
(96,121,ls),
(96,31,o),
(82,29,o),
(24,22,cs),
(8,20,l)
);
}
);
width = 445;
}
);
note = f_j.liga;
},
{
glyphname = f_k.liga;
lastChange = "2022-11-17 10:24:53 +0000";
layers = (
{
layerId = m01;
shapes = (
{
closed = 1;
nodes = (
(0,-3,l),
(123,0,l),
(240,-3,l),
(240,20,l),
(224,22,ls),
(173,28,o),
(158,31,o),
(158,121,cs),
(158,411,l),
(250,411,l),
(250,436,l),
(158,436,l),
(158,485,ls),
(158,611,o),
(178,699,o),
(282,699,cs),
(326,699,o),
(375,677,o),
(375,594,cs),
(375,121,ls),
(375,31,o),
(361,29,o),
(303,22,cs),
(287,20,l),
(287,-3,l),
(410,0,l),
(533,-3,l),
(533,20,l),
(517,22,ls),
(459,29,o),
(445,31,o),
(445,121,cs),
(445,154,l),
(495,214,l),
(685,0,l),
(796,-3,l),
(796,20,l),
(780,22,ls),
(756,25,o),
(731,53,o),
(711,76,cs),
(540,268,l),
(596,335,ls),
(630,375,o),
(670,405,o),
(730,413,cs),
(746,415,l),
(746,438,l),
(662,436,l),
(566,438,l),
(566,415,l),
(582,413,ls),
(599,411,o),
(606,405,o),
(606,395,cs),
(606,388,o),
(602,378,o),
(593,367,cs),
(445,188,l),
(445,725,l),
(381,694,l),
(359,712,o),
(322,724,o),
(283,724,cs),
(132,724,o),
(88,611,o),
(88,485,cs),
(88,436,l),
(2,436,l),
(2,411,l),
(88,411,l),
(88,121,ls),
(88,31,o),
(74,29,o),
(16,22,cs),
(0,20,l)
);
}
);
width = 796;
}
);
note = f_k.liga;
},
{
glyphname = fi;
lastChange = "2022-11-17 10:24:29 +0000";
layers = (
{
layerId = m01;
shapes = (
{
closed = 1;
nodes = (
(8,-3,l),
(131,0,l),
(240,-3,l),
(240,20,l),
(224,22,ls),
(177,29,o),
(166,31,o),
(166,121,cs),
(166,411,l),
(322,411,l),
(355,406,o),
(374,387,o),
(374,332,cs),
(374,121,ls),
(374,31,o),
(360,29,o),
(302,22,cs),
(286,20,l),
(286,-3,l),
(409,0,l),
(532,-3,l),
(532,20,l),
(516,22,ls),
(458,29,o),
(444,31,o),
(444,121,cs),
(444,448,l),
(389,438,o),
(341,436,o),
(286,436,cs),
(166,436,l),
(166,499,ls),
(166,599,o),
(180,699,o),
(286,699,cs),
(334,699,o),
(371,666,o),
(371,636,cs),
(371,617,o),
(352,615,o),
(352,591,cs),
(352,567,o),
(372,551,o),
(396,551,cs),
(426,551,o),
(445,573,o),
(445,607,cs),
(445,687,o),
(360,724,o),
(286,724,cs),
(134,724,o),
(96,617,o),
(96,504,cs),
(96,436,l),
(0,436,l),
(0,411,l),
(96,411,l),
(96,121,ls),
(96,31,o),
(82,29,o),
(24,22,cs),
(8,20,l)
);
}
);
width = 532;
}
);
note = fi;
unicode = 64257;
},
{
glyphname = fl;
lastChange = "2022-11-17 10:24:29 +0000";
layers = (
{
layerId = m01;
shapes = (
{
closed = 1;
nodes = (
(0,-3,l),
(123,0,l),
(240,-3,l),
(240,20,l),
(224,22,ls),
(173,28,o),
(158,31,o),
(158,121,cs),
(158,411,l),
(250,411,l),
(250,436,l),
(158,436,l),
(158,485,ls),
(158,611,o),
(178,699,o),
(282,699,cs),
(326,699,o),
(375,677,o),
(375,594,cs),
(375,121,ls),
(375,31,o),
(361,29,o),
(315,22,cs),
(299,20,l),
(299,-3,l),
(410,0,l),
(533,-3,l),
(533,20,l),
(517,22,ls),
(459,29,o),
(445,31,o),
(445,121,cs),
(445,725,l),
(381,694,l),
(359,712,o),
(322,724,o),
(283,724,cs),
(132,724,o),
(88,611,o),
(88,485,cs),
(88,436,l),
(2,436,l),
(2,411,l),
(88,411,l),
(88,121,ls),
(88,31,o),
(74,29,o),
(16,22,cs),
(0,20,l)
);
}
);
width = 533;
}
);
note = fl;
unicode = 64258;
},
{
glyphname = zero;
lastChange = "2022-11-17 10:24:53 +0000";
layers = (
{
layerId = m01;
shapes = (
{
closed = 1;
nodes = (
(338,-11,o),
(410,109,o),
(410,229,cs),
(410,349,o),
(338,469,o),
(205,469,cs),
(72,469,o),
(0,349,o),
(0,229,cs),
(0,109,o),
(72,-11,o),
(205,-11,cs)
);
},
{
closed = 1;
nodes = (
(104,19,o),
(80,110,o),
(80,229,cs),
(80,348,o),
(104,439,o),
(205,439,cs),
(306,439,o),
(330,348,o),
(330,229,cs),
(330,110,o),
(306,19,o),
(205,19,cs)
);
}
);
width = 410;
}
);
note = zero;
unicode = 48;
},
{
glyphname = one;
lastChange = "2022-11-17 10:24:30 +0000";
layers = (
{
layerId = m01;
shapes = (
{
closed = 1;
nodes = (
(0,-3,l),
(123,0,l),
(246,-3,l),
(246,20,l),
(230,22,ls),
(172,29,o),
(158,31,o),
(158,121,cs),
(158,475,l),
(142,467,o),
(118,461,o),
(92,456,cs),
(64,452,o),
(33,449,o),
(4,450,c),
(4,420,l),
(58,421,o),
(88,412,o),
(88,337,cs),
(88,121,ls),
(88,31,o),
(74,29,o),
(16,22,cs),
(0,20,l)
);
}
);
width = 246;
}
);
note = one;
unicode = 49;
},
{
glyphname = two;
lastChange = "2022-11-17 10:24:53 +0000";
layers = (
{
layerId = m01;
shapes = (
{
closed = 1;
nodes = (
(276,-88,l),
(299,-88,l),
(300,35,l),
(305,79,l),
(107,64,l),
(152,104,ls),
(218,163,o),
(310,244,o),
(310,334,cs),
(310,399,o),
(256,469,o),
(152,469,cs),
(65,469,o),
(0,413,o),
(0,335,cs),
(0,282,o),
(30,238,o),
(75,218,c),
(85,240,l),
(60,249,o),
(30,283,o),
(30,332,cs),
(30,386,o),
(64,438,o),
(133,438,cs),
(191,438,o),
(230,393,o),
(230,322,cs),
(230,222,o),
(157,158,o),
(91,86,cs),
(31,20,l),
(31,0,l),
(175,0,ls),
(265,0,o),
(267,-14,o),
(274,-72,cs)
);
}
);
width = 310;
}
);
note = two;
unicode = 50;
},
{
glyphname = three;
lastChange = "2022-11-17 10:24:53 +0000";
layers = (
{
layerId = m01;
shapes = (
{
closed = 1;
nodes = (
(312,-294,o),
(384,-189,o),
(384,-68,cs),
(384,31,o),
(316,120,o),
(217,120,cs),
(208,120,o),
(200,119,o),
(190,118,c),
(250,159,ls),
(335,217,o),
(359,276,o),
(359,328,cs),
(359,410,o),
(299,469,o),
(199,469,cs),
(108,469,o),
(39,413,o),
(39,335,cs),
(39,281,o),
(67,236,o),
(124,213,c),
(132,236,l),
(103,247,o),
(69,275,o),
(69,333,cs),
(69,390,o),
(113,438,o),
(175,438,cs),
(235,438,o),
(279,399,o),
(279,327,cs),
(279,224,o),
(208,158,o),
(160,124,cs),
(143,111,o),
(135,107,o),
(117,99,c),
(127,73,l),
(143,82,o),
(169,92,o),
(202,92,cs),
(259,92,o),
(300,44,o),
(300,-59,cs),
(300,-184,o),
(246,-267,o),
(160,-267,cs),
(100,-267,o),
(82,-242,o),
(82,-216,cs),
(82,-199,o),
(91,-187,o),
(91,-171,cs),
(91,-146,o),
(72,-128,o),
(48,-128,cs),
(19,-128,o),
(0,-151,o),
(0,-183,cs),
(0,-248,o),
(79,-294,o),
(164,-294,cs)
);
}
);
width = 384;
}
);
note = three;
unicode = 51;
},
{
glyphname = four;
lastChange = "2022-11-17 10:24:53 +0000";
layers = (
{
layerId = m01;
shapes = (
{
closed = 1;
nodes = (
(451,-3,l),
(451,20,l),
(435,22,ls),
(377,29,o),
(363,31,o),
(363,121,cs),
(363,212,l),
(475,212,l),
(475,245,l),
(363,245,l),
(363,681,l),
(341,681,l),
(0,241,l),
(0,212,l),
(295,212,l),
(294,121,ls),
(293,31,o),
(279,29,o),
(221,22,cs),
(205,21,l),
(205,-2,l),
(328,0,l)
);
},
{
closed = 1;
nodes = (
(36,245,l),
(297,574,l),
(295,245,l)
);
}
);
width = 475;
}
);
note = four;
unicode = 52;
},
{
glyphname = five;
lastChange = "2022-11-17 10:24:30 +0000";
layers = (
{
layerId = m01;
shapes = (
{
closed = 1;
nodes = (
(269,-11,o),
(365,90,o),
(365,250,cs),
(365,379,o),
(282,454,o),
(189,454,cs),
(149,454,o),
(113,438,o),
(89,413,c),
(105,615,l),
(144,615,ls),
(248,615,o),
(324,624,o),
(324,696,cs),
(324,706,l),
(314,706,l),
(288,691,o),
(237,688,o),
(182,688,cs),
(151,688,l),
(111,689,l),
(113,716,l),
(87,716,l),
(61,354,l),
(80,354,l),
(96,389,o),
(128,421,o),
(173,421,cs),
(225,421,o),
(282,372,o),
(282,248,cs),
(282,129,o),
(238,17,o),
(151,17,cs),
(113,17,o),
(83,40,o),
(83,73,cs),
(83,93,o),
(91,105,o),
(91,121,cs),
(91,144,o),
(75,162,o),
(50,162,cs),
(21,162,o),
(0,138,o),
(0,100,cs),
(0,46,o),
(55,-11,o),
(156,-11,cs)
);
}
);
width = 365;
}
);
note = five;
unicode = 53;
},
{
glyphname = six;
lastChange = "2022-11-17 10:24:53 +0000";
layers = (
{
layerId = m01;
shapes = (
{
closed = 1;
nodes = (
(331,-11,o),
(406,92,o),
(406,216,cs),
(406,367,o),
(311,429,o),
(230,429,cs),
(162,429,o),
(110,395,o),
(78,332,c),
(78,339,ls),
(74,576,o),
(158,695,o),
(237,695,cs),
(271,695,o),
(287,675,o),
(296,636,cs),
(301,615,o),
(322,607,o),
(339,607,cs),
(365,608,o),
(384,625,o),
(384,656,cs),
(384,705,o),
(319,724,o),
(257,724,cs),
(93,724,o),
(0,553,o),
(0,319,cs),
(0,133,o),
(45,-11,o),
(206,-11,cs)
);
},
{
closed = 1;
nodes = (
(126,19,o),
(87,92,o),
(87,210,cs),
(87,325,o),
(149,398,o),
(215,398,cs),
(285,398,o),
(326,338,o),
(326,220,cs),
(326,92,o),
(272,19,o),
(198,19,cs)
);
}
);
width = 406;
}
);
note = six;
unicode = 54;
},
{
glyphname = seven;
lastChange = "2022-11-17 10:24:30 +0000";
layers = (
{
layerId = m01;
shapes = (
{
closed = 1;
nodes = (
(148,-294,o),
(172,-282,o),
(187,-231,cs),
(379,434,l),
(379,450,l),
(22,450,l),
(22,500,l),
(0,500,l),
(0,268,l),
(22,268,l),
(22,368,l),
(336,368,l),
(105,-197,ls),
(97,-216,o),
(93,-234,o),
(93,-249,cs),
(93,-276,o),
(106,-294,o),
(128,-294,cs)
);
}
);
width = 379;
}
);
note = seven;
unicode = 55;
},
{
glyphname = eight;
lastChange = "2022-11-17 10:24:53 +0000";
layers = (
{
layerId = m01;
shapes = (
{
closed = 1;
nodes = (
(311,-11,o),
(391,68,o),
(391,178,cs),
(391,280,o),
(323,338,o),
(262,385,cs),
(242,401,l),
(295,440,o),
(358,491,o),
(358,577,cs),
(358,654,o),
(308,724,o),
(202,724,cs),
(109,724,o),
(22,665,o),
(22,556,cs),
(22,481,o),
(64,427,o),
(117,386,cs),
(139,369,l),
(75,317,o),
(0,257,o),
(0,156,cs),
(0,65,o),
(61,-11,o),
(187,-11,cs)
);
},
{
closed = 1;
nodes = (
(184,446,ls),
(145,476,o),
(93,518,o),
(93,582,cs),
(93,645,o),
(143,689,o),
(208,689,cs),
(286,689,o),
(321,633,o),
(321,577,cs),
(321,505,o),
(263,454,o),
(217,420,c)
);
},
{
closed = 1;
nodes = (
(37,244,o),
(103,301,o),
(164,350,c),
(197,324,ls),
(261,275,o),
(326,220,o),
(326,139,cs),
(326,65,o),
(273,21,o),
(188,21,cs),
(86,21,o),
(37,79,o),
(37,155,cs)
);
}
);
width = 391;
}
);
note = eight;
unicode = 56;
},
{
glyphname = nine;
lastChange = "2022-11-17 10:24:53 +0000";
layers = (
{
layerId = m01;
shapes = (
{
closed = 1;
nodes = (
(334,-296,o),
(427,-132,o),
(427,112,cs),
(427,311,o),
(384,469,o),
(211,469,cs),
(85,469,o),
(-5,349,o),
(0,219,cs),
(7,69,o),
(99,-11,o),
(204,-11,cs),
(259,-11,o),
(313,9,o),
(344,63,c),
(349,-165,o),
(276,-265,o),
(201,-265,cs),
(176,-265,o),
(165,-246,o),
(144,-206,cs),
(130,-183,o),
(117,-178,o),
(100,-178,cs),
(74,-179,o),
(55,-198,o),
(55,-226,cs),
(55,-281,o),
(113,-296,o),
(167,-296,cs)
);
},
{
closed = 1;
nodes = (
(125,19,o),
(86,88,o),
(80,223,cs),
(74,360,o),
(129,439,o),
(213,439,cs),
(300,439,o),
(339,366,o),
(339,244,cs),
(339,113,o),
(320,19,o),
(211,19,cs)
);
}
);
width = 427;
}
);
note = nine;
unicode = 57;
},
{
glyphname = zero.lf;
lastChange = "2022-11-17 10:24:53 +0000";
layers = (
{
layerId = m01;
shapes = (
{
closed = 1;
nodes = (
(424,-11,o),
(527,136,o),
(527,358,cs),
(527,578,o),
(424,724,o),
(263,724,cs),
(103,724,o),
(0,578,o),
(0,358,cs),
(0,136,o),
(103,-11,o),
(263,-11,cs)
);
},
{
closed = 1;
nodes = (
(130,15,o),
(96,150,o),
(96,358,cs),
(96,562,o),
(130,699,o),
(263,699,cs),
(398,699,o),
(432,562,o),
(432,358,cs),
(432,150,o),
(398,15,o),
(263,15,cs)
);
}
);
width = 527;
}
);
note = zero.lf;
},
{
glyphname = one.lf;
lastChange = "2022-11-17 10:24:53 +0000";
layers = (
{
layerId = m01;
shapes = (
{
closed = 1;
nodes = (
(2,-3,l),
(155,0,l),
(308,-3,l),
(308,22,l),
(288,24,ls),
(212,32,o),
(194,34,o),
(194,133,cs),
(194,715,l),
(156,715,l),
(105,694,o),
(77,675,o),
(0,666,c),
(0,636,l),
(34,633,ls),
(99,627,o),
(118,609,o),
(118,552,cs),
(118,133,ls),
(118,34,o),
(98,32,o),
(22,24,cs),
(2,22,l)
);
}
);
width = 308;
}
);
note = one.lf;
},
{
glyphname = two.lf;
lastChange = "2022-11-17 10:24:53 +0000";
layers = (
{
layerId = m01;
shapes = (
{
closed = 1;
nodes = (
(9,0,l),
(416,0,l),
(416,29,l),
(419,177,l),
(394,177,l),
(392,157,ls),
(384,88,o),
(382,71,o),
(283,69,cs),
(69,66,l),
(229,219,l),
(334,328,o),
(415,407,o),
(415,514,cs),
(415,649,o),
(328,724,o),
(211,724,cs),
(79,724,o),
(0,622,o),
(0,532,cs),
(0,471,o),
(23,433,o),
(64,433,cs),
(90,433,o),
(113,450,o),
(113,481,cs),
(113,503,o),
(103,514,o),
(81,530,c),
(62,541,o),
(47,561,o),
(47,584,cs),
(47,636,o),
(108,679,o),
(179,679,cs),
(281,679,o),
(327,608,o),
(327,506,cs),
(327,414,o),
(282,346,o),
(192,236,c),
(9,36,l)
);
}
);
width = 419;
}
);
note = two.lf;
},
{
glyphname = three.lf;
lastChange = "2022-11-17 10:24:53 +0000";
layers = (
{
layerId = m01;
shapes = (
{
closed = 1;
nodes = (
(353,-11,o),
(428,91,o),
(428,209,cs),
(428,307,o),
(374,398,o),
(239,400,cs),
(233,400,o),
(227,400,o),
(221,399,c),
(326,436,o),
(399,490,o),
(399,577,cs),
(399,683,o),
(310,724,o),
(203,724,cs),
(95,724,o),
(13,663,o),
(13,577,cs),
(13,532,o),
(36,501,o),
(70,501,cs),
(91,501,o),
(113,515,o),
(113,539,cs),
(115,565,o),
(104,572,o),
(87,585,cs),
(76,593,o),
(70,605,o),
(71,620,cs),
(71,663,o),
(123,694,o),
(180,694,cs),
(274,694,o),
(311,637,o),
(311,577,cs),
(311,487,o),
(270,438,o),
(123,392,c),
(122,357,l),
(148,367,o),
(175,374,o),
(206,374,cs),
(289,374,o),
(340,336,o),
(340,232,cs),
(340,136,o),
(302,18,o),
(169,18,cs),
(98,18,o),
(81,44,o),
(81,67,cs),
(81,84,o),
(95,95,o),
(95,118,cs),
(95,143,o),
(80,160,o),
(55,161,cs),
(18,161,o),
(0,136,o),
(0,101,cs),
(0,37,o),
(78,-11,o),
(168,-11,cs)
);
}
);
width = 428;
}
);
note = three.lf;
},
{
glyphname = four.lf;
lastChange = "2022-11-17 10:24:53 +0000";
layers = (
{
layerId = m01;
shapes = (
{
closed = 1;
nodes = (
(157,-3,l),
(311,0,l),
(446,-3,l),
(446,22,l),
(428,24,ls),
(364,32,o),
(349,34,o),
(349,133,cs),
(349,171,l),
(442,171,l),
(442,197,l),
(349,197,l),
(349,433,l),
(325,433,l),
(314,407,o),
(286,390,o),
(271,386,c),
(271,197,l),
(32,197,l),
(403,696,l),
(403,710,l),
(273,710,l),
(218,578,o),
(139,401,o),
(41,260,cs),
(0,196,l),
(0,171,l),
(271,171,l),
(271,133,ls),
(271,34,o),
(253,32,o),
(177,24,cs),
(157,22,l)
);
}
);
width = 446;
}
);
note = four.lf;
},
{
glyphname = five.lf;
lastChange = "2022-11-17 10:24:53 +0000";
layers = (
{
layerId = m01;
shapes = (
{
closed = 1;
nodes = (
(330,-11,o),
(428,92,o),
(428,238,cs),
(428,387,o),
(333,446,o),
(236,446,cs),
(184,446,o),
(128,418,o),
(104,386,c),
(105,628,l),
(247,628,ls),
(334,628,o),
(395,632,o),
(397,715,c),
(392,717,l),
(352,711,o),
(316,710,o),
(282,710,cs),
(78,710,l),
(74,322,l),
(100,322,l),
(116,374,o),
(167,414,o),
(221,414,cs),
(290,414,o),
(338,352,o),
(338,238,cs),
(338,134,o),
(300,15,o),
(167,15,cs),
(99,15,o),
(80,43,o),
(80,68,cs),
(80,84,o),
(95,96,o),
(96,118,cs),
(96,143,o),
(80,161,o),
(54,162,cs),
(19,162,o),
(0,136,o),
(0,100,cs),
(0,37,o),
(78,-11,o),
(165,-11,cs)
);
}
);
width = 428;
}
);
note = five.lf;
},
{
glyphname = six.lf;
lastChange = "2022-11-17 10:24:53 +0000";
layers = (
{
layerId = m01;
shapes = (
{
closed = 1;
nodes = (
(372,-11,o),
(437,107,o),
(437,221,cs),
(437,357,o),
(340,429,o),
(244,429,cs),
(187,429,o),
(128,404,o),
(88,341,c),
(89,417,o),
(94,480,o),
(104,531,cs),
(127,644,o),
(183,696,o),
(255,696,cs),
(287,696,o),
(324,682,o),
(324,656,cs),
(324,638,o),
(305,630,o),
(305,607,cs),
(305,586,o),
(320,562,o),
(351,562,cs),
(384,562,o),
(399,587,o),
(399,620,cs),
(399,680,o),
(333,724,o),
(254,724,cs),
(111,724,o),
(0,604,o),
(0,330,cs),
(0,115,o),
(57,-11,o),
(220,-11,cs)
);
},
{
closed = 1;
nodes = (
(138,17,o),
(88,95,o),
(88,221,cs),
(88,232,ls),
(88,327,o),
(152,398,o),
(231,398,cs),
(304,398,o),
(349,344,o),
(349,221,cs),
(349,95,o),
(321,17,o),
(226,17,cs)
);
}
);
width = 437;
}
);
note = six.lf;
},
{
glyphname = seven.lf;
lastChange = "2022-11-17 10:24:53 +0000";
layers = (
{
layerId = m01;
shapes = (
{
closed = 1;
nodes = (
(22,0,l),
(147,0,l),
(198,179,o),
(249,329,o),
(339,535,c),
(414,688,l),
(414,710,l),
(3,710,l),
(3,675,l),
(0,527,l),
(25,527,l),
(27,547,ls),
(35,616,o),
(37,635,o),
(136,635,cs),
(359,635,l)
);
}
);
width = 414;
}
);
note = seven.lf;
},
{
glyphname = eight.lf;
lastChange = "2022-11-17 10:24:53 +0000";
layers = (
{
layerId = m01;
shapes = (
{
closed = 1;
nodes = (
(367,-11,o),
(444,90,o),
(444,189,cs),
(444,270,o),
(394,351,o),
(297,381,c),
(385,406,o),
(430,476,o),
(430,546,cs),
(430,635,o),
(357,724,o),
(227,724,cs),
(107,724,o),
(27,635,o),
(27,546,cs),
(27,478,o),
(68,410,o),
(152,382,c),
(52,355,o),
(0,271,o),
(0,189,cs),
(0,90,o),
(78,-11,o),
(222,-11,cs)
);
},
{
closed = 1;
nodes = (
(145,390,o),
(111,456,o),
(111,546,cs),
(111,635,o),
(141,700,o),
(227,700,cs),
(315,700,o),
(344,635,o),
(344,546,cs),
(344,456,o),
(310,390,o),
(227,390,cs)
);
},
{
closed = 1;
nodes = (
(118,13,o),
(93,88,o),
(93,189,cs),
(93,290,o),
(122,370,o),
(222,370,cs),
(322,370,o),
(351,290,o),
(351,189,cs),
(351,88,o),
(327,13,o),
(222,13,cs)
);
}
);
width = 444;
}
);
note = eight.lf;
},
{
glyphname = nine.lf;
lastChange = "2022-11-17 10:24:53 +0000";
layers = (
{
layerId = m01;
shapes = (
{
closed = 1;
nodes = (
(65,724,o),
(0,606,o),
(0,492,cs),
(0,356,o),
(97,284,o),
(193,284,cs),
(250,284,o),
(309,309,o),
(349,372,c),
(348,296,o),
(343,233,o),
(333,182,cs),
(310,69,o),
(254,17,o),
(182,17,cs),
(150,17,o),
(113,31,o),
(113,57,cs),
(113,75,o),
(132,83,o),
(132,106,cs),
(132,127,o),
(117,151,o),
(86,151,cs),
(53,151,o),
(38,126,o),
(38,93,cs),
(38,33,o),
(104,-11,o),
(183,-11,cs),
(326,-11,o),
(437,109,o),
(437,383,cs),
(437,598,o),
(380,724,o),
(217,724,cs)
);
},
{
closed = 1;
nodes = (
(299,696,o),
(349,618,o),
(349,492,cs),
(349,481,ls),
(349,386,o),
(285,315,o),
(206,315,cs),
(133,315,o),
(88,369,o),
(88,492,cs),
(88,618,o),
(116,696,o),
(211,696,cs)
);
}
);
width = 437;
}
);
note = nine.lf;
},
{
glyphname = period;
lastChange = "2022-11-17 10:24:53 +0000";
layers = (
{
layerId = m01;
shapes = (
{
closed = 1;
nodes = (
(99,-11,o),
(126,18,o),
(126,53,cs),
(126,86,o),
(99,115,o),
(64,115,cs),
(27,115,o),
(0,86,o),
(0,53,cs),
(0,18,o),
(27,-11,o),
(64,-11,cs)
);
}
);
width = 126;
}
);
note = period;
unicode = 46;
},
{
glyphname = comma;
lastChange = "2022-11-17 10:24:53 +0000";
layers = (
{
layerId = m01;
shapes = (
{
closed = 1;
nodes = (
(16,-216,l),
(46,-197,o),
(86,-168,o),
(116,-128,cs),
(144,-92,o),
(163,-47,o),
(163,0,cs),
(163,63,o),
(133,123,o),
(71,123,cs),
(25,123,o),
(0,92,o),
(0,56,cs),
(0,19,o),
(26,-11,o),
(60,-11,cs),
(97,-11,o),
(113,14,o),
(113,37,cs),
(113,49,o),
(108,63,o),
(103,70,c),
(106,75,l),
(126,65,o),
(133,25,o),
(133,0,cs),
(133,-86,o),
(66,-147,o),
(2,-189,c)
);
}
);
width = 163;
}
);
note = comma;
unicode = 44;
},
{
glyphname = colon;
lastChange = "2022-11-17 10:24:30 +0000";
layers = (
{
layerId = m01;
shapes = (
{
closed = 1;
nodes = (
(99,307,o),
(126,336,o),
(126,371,cs),
(126,404,o),
(99,433,o),
(64,433,cs),
(27,433,o),
(0,404,o),
(0,371,cs),
(0,336,o),
(27,307,o),
(64,307,cs)
);
},
{
closed = 1;
nodes = (
(99,-11,o),
(126,18,o),
(126,53,cs),
(126,86,o),
(99,115,o),
(64,115,cs),
(27,115,o),
(0,86,o),
(0,53,cs),
(0,18,o),
(27,-11,o),
(64,-11,cs)
);
}
);
width = 126;
}
);
note = colon;
unicode = 58;
},
{
glyphname = semicolon;
lastChange = "2022-11-17 10:24:30 +0000";
layers = (
{
layerId = m01;
shapes = (
{
closed = 1;
nodes = (
(99,307,o),
(126,336,o),
(126,371,cs),
(126,404,o),
(99,433,o),
(64,433,cs),
(27,433,o),
(0,404,o),
(0,371,cs),
(0,336,o),
(27,307,o),
(64,307,cs)
);
},
{
closed = 1;
nodes = (
(16,-217,l),
(46,-198,o),
(86,-169,o),
(116,-129,cs),
(144,-93,o),
(163,-48,o),
(163,-1,cs),
(163,62,o),
(133,122,o),
(71,122,cs),
(25,122,o),
(0,91,o),
(0,55,cs),
(0,18,o),
(26,-12,o),
(60,-12,cs),
(97,-12,o),
(113,13,o),
(113,36,cs),
(113,48,o),
(108,62,o),
(103,69,c),
(106,74,l),
(126,64,o),
(133,24,o),
(133,-1,cs),
(133,-87,o),
(66,-148,o),
(2,-190,c)
);
}
);
width = 163;
}
);
note = semicolon;
unicode = 59;
},
{
glyphname = ellipsis;
lastChange = "2022-11-17 10:24:53 +0000";
layers = (
{
layerId = m01;
shapes = (
{
closed = 1;
nodes = (
(407,-11,o),
(434,18,o),
(434,53,cs),
(434,86,o),
(407,115,o),
(372,115,cs),
(335,115,o),
(308,86,o),
(308,53,cs),
(308,18,o),
(335,-11,o),
(372,-11,cs)
);
},
{
closed = 1;
nodes = (
(714,-11,o),
(741,18,o),
(741,53,cs),
(741,86,o),
(714,115,o),
(679,115,cs),
(642,115,o),
(615,86,o),
(615,53,cs),
(615,18,o),
(642,-11,o),
(679,-11,cs)
);
},
{
closed = 1;
nodes = (
(99,-11,o),
(126,18,o),
(126,53,cs),
(126,86,o),
(99,115,o),
(64,115,cs),
(27,115,o),
(0,86,o),
(0,53,cs),
(0,18,o),
(27,-11,o),
(64,-11,cs)
);
}
);
width = 741;
}
);
note = ellipsis;
unicode = 8230;
},
{
glyphname = exclam;
lastChange = "2022-11-17 10:24:30 +0000";
layers = (
{
layerId = m01;
shapes = (
{
closed = 1;
nodes = (
(80,199,l),
(83,348,o),
(99,495,o),
(113,643,cs),
(113,648,o),
(114,653,o),
(114,657,cs),
(114,704,o),
(91,724,o),
(64,724,cs),
(35,724,o),
(10,700,o),
(15,643,cs),
(29,495,o),
(44,347,o),
(48,199,c)
);
},
{
closed = 1;
nodes = (
(99,-14,o),
(128,15,o),
(128,50,cs),
(128,85,o),
(99,114,o),
(64,114,cs),
(29,114,o),
(0,85,o),
(0,50,cs),
(0,15,o),
(29,-14,o),
(64,-14,cs)
);
}
);
width = 128;
}
);
note = exclam;
unicode = 33;
},
{
glyphname = question;
lastChange = "2022-11-17 10:24:30 +0000";
layers = (
{
layerId = m01;
shapes = (
{
closed = 1;
nodes = (
(93,176,o),
(114,195,o),
(105,229,cs),
(94,271,o),
(78,310,o),
(64,388,c),
(89,367,o),
(124,354,o),
(165,354,cs),
(255,354,o),
(326,430,o),
(330,540,cs),
(334,652,o),
(247,724,o),
(146,724,cs),
(79,724,o),
(1,693,o),
(0,640,cs),
(-1,609,o),
(20,585,o),
(47,585,cs),
(79,585,o),
(93,609,o),
(93,629,cs),
(93,643,o),
(86,657,o),
(86,668,cs),
(86,686,o),
(100,698,o),
(144,698,cs),
(223,698,o),
(254,641,o),
(250,540,cs),
(247,445,o),
(228,381,o),
(153,381,cs),
(93,381,o),
(58,415,o),
(44,468,c),
(23,467,l),
(23,464,l),
(35,214,ls),
(36,188,o),
(55,176,o),
(74,176,cs)
);
},
{
closed = 1;
nodes = (
(114,-11,o),
(141,18,o),
(141,53,cs),
(141,86,o),
(114,115,o),
(77,115,cs),
(42,115,o),
(15,86,o),
(15,53,cs),
(15,18,o),
(42,-11,o),
(77,-11,cs)
);
}
);
width = 330;
}
);
note = question;
unicode = 63;
},
{
glyphname = asterisk;
lastChange = "2022-11-17 10:24:30 +0000";
layers = (
{
layerId = m01;
shapes = (
{
closed = 1;
nodes = (
(212,305,o),
(226,325,o),
(226,355,cs),
(226,392,o),
(199,437,o),
(199,498,c),
(252,468,o),
(278,421,o),
(310,402,cs),
(321,395,o),
(332,392,o),
(341,392,cs),
(354,392,o),
(365,399,o),
(372,411,cs),
(377,420,o),
(379,427,o),
(379,434,cs),
(379,449,o),
(368,460,o),
(349,471,cs),
(318,489,o),
(262,485,o),
(209,515,c),
(259,550,o),
(313,551,o),
(344,572,cs),
(360,583,o),
(371,595,o),
(371,610,cs),
(371,617,o),
(368,625,o),
(362,633,cs),
(354,644,o),
(344,650,o),
(332,650,cs),
(322,650,o),
(310,645,o),
(298,636,cs),
(270,615,o),
(248,566,o),
(199,531,c),
(199,592,o),
(228,637,o),
(228,674,cs),
(228,704,o),
(214,724,o),
(189,724,cs),
(158,724,o),
(149,703,o),
(149,674,cs),
(149,637,o),
(180,592,o),
(180,531,c),
(131,566,o),
(110,615,o),
(81,636,cs),
(69,645,o),
(57,650,o),
(47,650,cs),
(35,650,o),
(25,644,o),
(17,633,cs),
(11,625,o),
(8,617,o),
(8,610,cs),
(8,595,o),
(19,583,o),
(35,572,cs),
(66,551,o),
(120,550,o),
(170,515,c),
(117,485,o),
(62,489,o),
(30,471,cs),
(12,460,o),
(0,449,o),
(0,433,cs),
(0,427,o),
(3,419,o),
(7,411,cs),
(14,398,o),
(25,392,o),
(38,392,cs),
(47,392,o),
(58,395,o),
(69,402,cs),
(101,421,o),
(127,468,o),
(180,498,c),
(180,437,o),
(147,392,o),
(147,355,cs),
(147,326,o),
(156,305,o),
(187,305,cs)
);
}
);
width = 379;
}
);
note = asterisk;
unicode = 42;
},
{
glyphname = hyphen.case;
lastChange = "2022-11-17 10:24:53 +0000";
layers = (
{
layerId = m01;
shapes = (
{
closed = 1;
nodes = (
(0,306,l),
(267,306,l),
(267,346,l),
(0,346,l)
);
}
);
width = 267;
}
);
note = hyphen.case;
},
{
glyphname = endash.case;
lastChange = "2022-11-17 10:24:53 +0000";
layers = (
{
layerId = m01;
shapes = (
{
closed = 1;
nodes = (
(0,302,l),
(454,302,l),
(454,342,l),
(0,342,l)
);
}
);
width = 454;
}
);
note = endash.case;
},
{
glyphname = emdash.case;
lastChange = "2022-11-17 10:24:53 +0000";
layers = (
{
layerId = m01;
shapes = (
{
closed = 1;
nodes = (
(0,310,l),
(695,310,l),
(695,350,l),
(0,350,l)
);
}
);
width = 695;
}
);
note = emdash.case;
},
{
glyphname = parenleft;
lastChange = "2022-11-17 10:24:53 +0000";
layers = (
{
layerId = m01;
shapes = (
{
closed = 1;
nodes = (
(258,-131,l),
(153,-57,o),
(75,134,o),
(75,321,cs),
(75,508,o),
(153,699,o),
(258,773,c),
(243,796,l),
(97,701,o),
(0,514,o),
(0,321,cs),
(0,128,o),
(97,-59,o),
(243,-154,c)
);
}
);
width = 258;
}
);
note = parenleft;
unicode = 40;
},
{
glyphname = parenright;
lastChange = "2022-11-17 10:24:53 +0000";
layers = (
{
layerId = m01;
shapes = (
{
closed = 1;
nodes = (
(15,-154,l),
(161,-59,o),
(258,128,o),
(258,321,cs),
(258,514,o),
(161,701,o),
(15,796,c),
(0,773,l),
(105,699,o),
(183,508,o),
(183,321,cs),
(183,134,o),
(105,-57,o),
(0,-131,c)
);
}
);
width = 258;
}
);
note = parenright;
unicode = 41;
},
{
glyphname = braceleft;
lastChange = "2022-11-17 10:24:53 +0000";
layers = (
{
layerId = m01;
shapes = (
{
closed = 1;
nodes = (
(280,-119,l),
(217,-119,o),
(163,-88,o),
(163,-25,cs),
(163,33,o),
(182,90,o),
(182,159,cs),
(182,239,o),
(120,318,o),
(48,318,c),
(48,324,l),
(120,324,o),
(182,403,o),
(182,483,cs),
(182,552,o),
(163,609,o),
(163,667,cs),
(163,730,o),
(217,761,o),
(280,761,c),
(280,784,l),
(171,784,o),
(91,700,o),
(91,601,cs),
(91,540,o),
(116,501,o),
(116,438,cs),
(116,384,o),
(62,332,o),
(0,332,c),
(0,309,l),
(62,309,o),
(116,258,o),
(116,204,cs),
(116,141,o),
(91,102,o),
(91,41,cs),
(91,-58,o),
(171,-142,o),
(280,-142,c)
);
}
);
width = 280;
}
);
note = braceleft;
unicode = 123;
},
{
glyphname = braceright;
lastChange = "2022-11-17 10:24:53 +0000";
layers = (
{
layerId = m01;
shapes = (
{
closed = 1;
nodes = (
(0,-142,l),
(109,-142,o),
(189,-58,o),
(189,41,cs),
(189,102,o),
(164,141,o),
(164,204,cs),
(164,258,o),
(218,309,o),
(280,309,c),
(280,332,l),
(218,332,o),
(164,384,o),
(164,438,cs),
(164,501,o),
(189,540,o),
(189,601,cs),
(189,700,o),
(109,784,o),
(0,784,c),
(0,761,l),
(63,761,o),
(117,730,o),
(117,667,cs),
(117,609,o),
(98,552,o),
(98,483,cs),
(98,403,o),
(160,324,o),
(232,324,c),
(232,318,l),
(160,318,o),
(98,239,o),
(98,159,cs),
(98,90,o),
(117,33,o),
(117,-25,cs),
(117,-88,o),
(63,-119,o),
(0,-119,c)
);
}
);
width = 280;
}
);
note = braceright;
unicode = 125;
},
{
glyphname = bracketleft;
lastChange = "2022-11-17 10:24:53 +0000";
layers = (
{
layerId = m01;
shapes = (
{
closed = 1;
nodes = (
(0,-142,l),
(184,-142,l),
(184,-101,l),
(45,-101,l),
(45,743,l),
(184,743,l),
(184,784,l),
(0,784,l)
);
}
);
width = 184;
}
);
note = bracketleft;
unicode = 91;
},
{
glyphname = bracketright;
lastChange = "2022-11-17 10:24:53 +0000";
layers = (
{
layerId = m01;
shapes = (
{
closed = 1;
nodes = (
(184,-142,l),
(184,784,l),
(0,784,l),
(0,743,l),
(139,743,l),
(139,-101,l),
(0,-101,l),
(0,-142,l)
);
}
);
width = 184;
}
);
note = bracketright;
unicode = 93;
},
{
glyphname = quotesinglbase;
lastChange = "2022-11-17 10:24:30 +0000";
layers = (
{
layerId = m01;
shapes = (
{
closed = 1;
nodes = (
(16,-216,l),
(46,-197,o),
(86,-168,o),
(116,-128,cs),
(144,-92,o),
(163,-47,o),
(163,0,cs),
(163,63,o),
(133,123,o),
(71,123,cs),
(25,123,o),
(0,92,o),
(0,56,cs),
(0,19,o),
(26,-11,o),
(60,-11,cs),
(97,-11,o),
(113,14,o),
(113,37,cs),
(113,49,o),
(108,63,o),
(103,70,c),
(106,75,l),
(126,65,o),
(133,25,o),
(133,0,cs),
(133,-86,o),
(66,-147,o),
(2,-189,c)
);
}
);
width = 163;
}
);
note = quotesinglbase;
unicode = 8218;
},
{
glyphname = quotedblbase;
lastChange = "2022-11-17 10:24:30 +0000";
layers = (
{
layerId = m01;
shapes = (
{
closed = 1;
nodes = (
(260,-154,l),
(317,-117,o),
(360,-77,o),
(360,4,cs),
(360,71,o),
(328,113,o),
(280,113,cs),
(241,113,o),
(215,87,o),
(215,48,cs),
(215,13,o),
(239,-11,o),
(274,-11,cs),
(298,-11,o),
(321,7,o),
(321,26,cs),
(321,35,o),
(317,41,o),
(317,45,cs),
(317,46,o),
(317,47,o),
(319,48,cs),
(331,54,o),
(338,26,o),
(338,2,cs),
(338,-61,o),
(295,-101,o),
(247,-133,c)
);
},
{
closed = 1;
nodes = (
(45,-154,l),
(102,-117,o),
(145,-77,o),
(145,4,cs),
(145,71,o),
(113,113,o),
(65,113,cs),
(26,113,o),
(0,87,o),
(0,48,cs),
(0,13,o),
(24,-11,o),
(59,-11,cs),
(83,-11,o),
(106,7,o),
(106,26,cs),
(106,35,o),
(102,41,o),
(102,45,cs),
(102,46,o),
(102,47,o),
(104,48,cs),
(116,54,o),
(123,26,o),
(123,2,cs),
(123,-61,o),
(80,-101,o),
(32,-133,c)
);
}
);
width = 360;
}
);
note = quotedblbase;
unicode = 8222;
},
{
glyphname = quotedblleft;
lastChange = "2022-11-17 10:24:53 +0000";
layers = (
{
layerId = m01;
shapes = (
{
closed = 1;
nodes = (
(100,714,l),
(43,677,o),
(0,637,o),
(0,556,cs),
(0,489,o),
(32,447,o),
(80,447,cs),
(119,447,o),
(145,473,o),
(145,512,cs),
(145,547,o),
(121,571,o),
(86,571,cs),
(62,571,o),
(39,553,o),
(39,534,cs),
(39,525,o),
(43,519,o),
(43,515,cs),
(43,514,o),
(43,513,o),
(41,512,cs),
(29,506,o),
(22,534,o),
(22,558,cs),
(22,621,o),
(65,661,o),
(113,693,c)
);
},
{
closed = 1;
nodes = (
(315,714,l),
(258,677,o),
(215,637,o),
(215,556,cs),
(215,489,o),
(247,447,o),
(295,447,cs),
(334,447,o),
(360,473,o),
(360,512,cs),
(360,547,o),
(336,571,o),
(301,571,cs),
(277,571,o),
(254,553,o),
(254,534,cs),
(254,525,o),
(258,519,o),
(258,515,cs),
(258,514,o),
(258,513,o),
(256,512,cs),
(244,506,o),
(237,534,o),
(237,558,cs),
(237,621,o),
(280,661,o),
(328,693,c)
);
}
);
width = 360;
}
);
note = quotedblleft;
unicode = 8220;
},
{
glyphname = quotedblright;
lastChange = "2022-11-17 10:24:53 +0000";
layers = (
{
layerId = m01;
shapes = (
{
closed = 1;
nodes = (
(260,455,l),
(317,492,o),
(360,532,o),
(360,613,cs),
(360,680,o),
(328,722,o),
(280,722,cs),
(241,722,o),
(215,696,o),
(215,657,cs),
(215,622,o),
(239,598,o),
(274,598,cs),
(298,598,o),
(321,616,o),
(321,635,cs),
(321,644,o),
(317,650,o),
(317,654,cs),
(317,655,o),
(317,656,o),
(319,657,cs),
(331,663,o),
(338,635,o),
(338,611,cs),
(338,548,o),
(295,508,o),
(247,476,c)
);
},
{
closed = 1;
nodes = (
(45,455,l),
(102,492,o),
(145,532,o),
(145,613,cs),
(145,680,o),
(113,722,o),
(65,722,cs),
(26,722,o),
(0,696,o),
(0,657,cs),
(0,622,o),
(24,598,o),
(59,598,cs),
(83,598,o),
(106,616,o),
(106,635,cs),
(106,644,o),
(102,650,o),
(102,654,cs),
(102,655,o),
(102,656,o),
(104,657,cs),
(116,663,o),
(123,635,o),
(123,611,cs),
(123,548,o),
(80,508,o),
(32,476,c)
);
}
);
width = 360;
}
);
note = quotedblright;
unicode = 8221;
},
{
glyphname = quoteleft;
lastChange = "2022-11-17 10:24:53 +0000";
layers = (
{
layerId = m01;
shapes = (
{
closed = 1;
nodes = (
(100,714,l),
(43,677,o),
(0,637,o),
(0,556,cs),
(0,489,o),
(32,447,o),
(80,447,cs),
(119,447,o),
(145,473,o),
(145,512,cs),
(145,547,o),
(121,571,o),
(86,571,cs),
(62,571,o),
(39,553,o),
(39,534,cs),
(39,525,o),
(43,519,o),
(43,515,cs),
(43,514,o),
(43,513,o),
(41,512,cs),
(29,506,o),
(22,534,o),
(22,558,cs),
(22,621,o),
(65,661,o),
(113,693,c)
);
}
);
width = 145;
}
);
note = quoteleft;
unicode = 8216;
},
{
glyphname = quoteright;
lastChange = "2022-11-17 10:24:53 +0000";
layers = (
{
layerId = m01;
shapes = (
{
closed = 1;
nodes = (
(45,455,l),
(102,492,o),
(145,532,o),
(145,613,cs),
(145,680,o),
(113,722,o),
(65,722,cs),
(26,722,o),
(0,696,o),
(0,657,cs),
(0,622,o),
(24,598,o),
(59,598,cs),
(83,598,o),
(106,616,o),
(106,635,cs),
(106,644,o),
(102,650,o),
(102,654,cs),
(102,655,o),
(102,656,o),
(104,657,cs),
(116,663,o),
(123,635,o),
(123,611,cs),
(123,548,o),
(80,508,o),
(32,476,c)
);
}
);
width = 145;
}
);
note = quoteright;
unicode = 8217;
},
{
glyphname = guillemotleft;
lastChange = "2022-11-17 10:24:30 +0000";
layers = (
{
layerId = m01;
shapes = (
{
closed = 1;
nodes = (
(148,67,l),
(80,86,o),
(55,147,o),
(55,218,cs),
(55,289,o),
(80,350,o),
(148,369,c),
(138,399,l),
(49,378,o),
(0,307,o),
(0,218,cs),
(0,130,o),
(49,58,o),
(138,37,c)
);
},
{
closed = 1;
nodes = (
(313,67,l),
(245,86,o),
(220,147,o),
(220,218,cs),
(220,289,o),
(245,350,o),
(313,369,c),
(303,399,l),
(214,378,o),
(165,307,o),
(165,218,cs),
(165,130,o),
(214,58,o),
(303,37,c)
);
}
);
width = 313;
}
);
note = guillemotleft;
unicode = 171;
},
{
glyphname = guillemotright;
lastChange = "2022-11-17 10:24:30 +0000";
layers = (
{
layerId = m01;
shapes = (
{
closed = 1;
nodes = (
(175,37,l),
(264,58,o),
(313,130,o),
(313,218,cs),
(313,307,o),
(264,378,o),
(175,399,c),
(165,369,l),
(233,350,o),
(258,289,o),
(258,218,cs),
(258,147,o),
(233,86,o),
(165,67,c)
);
},
{
closed = 1;
nodes = (
(10,37,l),
(99,58,o),
(148,130,o),
(148,218,cs),
(148,307,o),
(99,378,o),
(10,399,c),
(0,369,l),
(68,350,o),
(93,289,o),
(93,218,cs),
(93,147,o),
(68,86,o),
(0,67,c)
);
}
);
width = 313;
}
);
note = guillemotright;
unicode = 187;
},
{
glyphname = guilsinglleft;
lastChange = "2022-11-17 10:24:30 +0000";
layers = (
{
layerId = m01;
shapes = (
{
closed = 1;
nodes = (
(148,67,l),
(80,86,o),
(55,147,o),
(55,218,cs),
(55,289,o),
(80,350,o),
(148,369,c),
(138,399,l),
(49,378,o),
(0,307,o),
(0,218,cs),
(0,130,o),
(49,58,o),
(138,37,c)
);
}
);
width = 148;
}
);
note = guilsinglleft;
unicode = 8249;
},
{
glyphname = guilsinglright;
lastChange = "2022-11-17 10:24:30 +0000";
layers = (
{
layerId = m01;
shapes = (
{
closed = 1;
nodes = (
(10,37,l),
(99,58,o),
(148,130,o),
(148,218,cs),
(148,307,o),
(99,378,o),
(10,399,c),
(0,369,l),
(68,350,o),
(93,289,o),
(93,218,cs),
(93,147,o),
(68,86,o),
(0,67,c)
);
}
);
width = 148;
}
);
note = guilsinglright;
unicode = 8250;
},
{
glyphname = quotedbl;
lastChange = "2022-11-17 10:24:53 +0000";
layers = (
{
layerId = m01;
shapes = (
{
closed = 1;
nodes = (
(27,469,l),
(51,469,l),
(77,652,ls),
(78,659,o),
(78,665,o),
(78,671,cs),
(78,700,o),
(68,724,o),
(39,724,cs),
(10,724,o),
(0,700,o),
(0,671,cs),
(0,665,o),
(0,659,o),
(1,652,cs)
);
},
{
closed = 1;
nodes = (
(160,469,l),
(184,469,l),
(210,652,ls),
(211,659,o),
(211,665,o),
(211,671,cs),
(211,700,o),
(201,724,o),
(172,724,cs),
(143,724,o),
(133,700,o),
(133,671,cs),
(133,665,o),
(133,659,o),
(134,652,cs)
);
}
);
width = 211;
}
);
note = quotedbl;
unicode = 34;
},
{
glyphname = quotesingle;
lastChange = "2022-11-17 10:24:53 +0000";
layers = (
{
layerId = m01;
shapes = (
{
closed = 1;
nodes = (
(27,469,l),
(51,469,l),
(77,652,ls),
(78,659,o),
(78,665,o),
(78,671,cs),
(78,700,o),
(68,724,o),
(39,724,cs),
(10,724,o),
(0,700,o),
(0,671,cs),
(0,665,o),
(0,659,o),
(1,652,cs)
);
}
);
width = 78;
}
);
note = quotesingle;
unicode = 39;
},
{
glyphname = dollar;
lastChange = "2022-11-17 10:24:30 +0000";
layers = (
{
layerId = m01;
shapes = (
{
closed = 1;
nodes = (
(229,-115,l),
(254,-115,l),
(254,-11,l),
(359,-11,o),
(446,68,o),
(446,187,cs),
(446,300,o),
(379,350,o),
(269,404,cs),
(254,411,l),
(254,693,l),
(322,680,o),
(382,617,o),
(394,519,c),
(419,519,l),
(417,616,l),
(420,712,l),
(395,712,l),
(393,690,o),
(388,681,o),
(376,681,cs),
(365,681,o),
(353,685,o),
(335,694,cs),
(318,703,o),
(291,716,o),
(254,722,c),
(254,830,l),
(229,830,l),
(229,724,l),
(227,724,o),
(224,724,o),
(222,724,cs),
(104,724,o),
(20,649,o),
(20,543,cs),
(20,452,o),
(68,400,o),
(168,352,cs),
(210,332,ls),
(217,329,o),
(223,326,o),
(229,323,c),
(229,19,l),
(128,29,o),
(58,116,o),
(38,200,cs),
(27,247,l),
(2,247,l),
(5,118,l),
(0,0,l),
(25,0,l),
(28,15,ls),
(32,33,o),
(37,52,o),
(56,52,cs),
(70,52,o),
(88,44,o),
(118,28,cs),
(148,12,o),
(185,-6,o),
(229,-10,c)
);
},
{
closed = 1;
nodes = (
(228,424,l),
(149,462,o),
(95,499,o),
(95,575,cs),
(95,646,o),
(148,696,o),
(227,696,cs),
(229,696,l),
(229,424,l)
);
},
{
closed = 1;
nodes = (
(374,58,o),
(313,20,o),
(254,18,c),
(254,310,l),
(330,267,o),
(374,221,o),
(374,146,cs)
);
}
);
width = 446;
}
);
note = dollar;
unicode = 36;
},
{
glyphname = Euro;
lastChange = "2022-11-17 10:24:30 +0000";
layers = (
{
layerId = m01;
shapes = (
{
closed = 1;
nodes = (
(20,259,l),
(118,259,l),
(147,102,o),
(250,-11,o),
(421,-11,cs),
(613,-11,o),
(659,131,o),
(681,216,c),
(650,222,l),
(631,152,o),
(582,19,o),
(437,19,cs),
(301,19,o),
(236,119,o),
(217,259,c),
(513,259,l),
(527,291,l),
(214,291,l),
(212,312,o),
(211,333,o),
(211,355,cs),
(211,362,o),
(212,370,o),
(212,377,c),
(553,377,l),
(567,409,l),
(215,409,l),
(233,601,o),
(297,694,o),
(433,694,cs),
(536,694,o),
(625,610,o),
(643,476,c),
(668,476,l),
(665,593,l),
(667,710,l),
(642,710,l),
(639,682,o),
(626,672,o),
(612,672,cs),
(593,672,o),
(533,724,o),
(427,724,cs),
(258,724,o),
(134,585,o),
(112,409,c),
(20,409,l),
(0,377,l),
(110,377,l),
(109,370,o),
(109,362,o),
(109,355,cs),
(109,333,o),
(110,312,o),
(113,291,c),
(40,291,l)
);
}
);
width = 681;
}
);
note = Euro;
unicode = 8364;
},
{
glyphname = sterling;
lastChange = "2022-11-17 10:24:30 +0000";
layers = (
{
layerId = m01;
shapes = (
{
closed = 1;
nodes = (
(82,-11,o),
(119,16,o),
(149,75,c),
(231,59,o),
(291,-11,o),
(380,-11,cs),
(481,-11,o),
(519,64,o),
(519,153,c),
(497,153,l),
(492,91,o),
(455,60,o),
(398,60,cs),
(321,60,o),
(259,98,o),
(160,99,c),
(176,137,o),
(190,185,o),
(204,246,cs),
(206,257,l),
(215,299,ls),
(216,302,o),
(216,305,o),
(217,308,c),
(386,308,l),
(390,333,l),
(222,333,l),
(250,485,o),
(265,699,o),
(382,699,cs),
(399,699,o),
(417,692,o),
(417,675,cs),
(417,664,o),
(408,656,o),
(408,636,cs),
(408,611,o),
(427,590,o),
(452,590,cs),
(479,590,o),
(501,608,o),
(501,645,cs),
(501,702,o),
(445,724,o),
(382,724,cs),
(221,724,o),
(173,516,o),
(146,358,cs),
(145,350,o),
(144,341,o),
(143,333,c),
(50,333,l),
(46,308,l),
(140,308,l),
(138,291,o),
(137,274,o),
(137,256,c),
(135,245,l),
(133,191,o),
(131,137,o),
(122,97,c),
(64,91,o),
(0,70,o),
(0,23,cs),
(0,10,o),
(5,-11,o),
(34,-11,cs)
);
}
);
width = 519;
}
);
note = sterling;
unicode = 163;
},
{
glyphname = yen;
lastChange = "2022-11-17 10:24:30 +0000";
layers = (
{
layerId = m01;
shapes = (
{
closed = 1;
nodes = (
(208,-3,l),
(356,0,l),
(357,0,l),
(505,-3,l),
(505,22,l),
(485,24,ls),
(416,32,o),
(399,34,o),
(399,133,cs),
(399,165,l),
(561,165,l),
(561,197,l),
(399,197,l),
(399,279,l),
(561,279,l),
(561,311,l),
(412,311,l),
(581,606,ls),
(609,655,o),
(632,675,o),
(675,683,cs),
(702,688,l),
(702,713,l),
(596,708,l),
(464,713,l),
(464,688,l),
(493,685,ls),
(526,682,o),
(550,672,o),
(550,644,cs),
(550,629,o),
(543,609,o),
(528,582,cs),
(383,328,l),
(237,582,ls),
(222,608,o),
(215,628,o),
(215,643,cs),
(215,670,o),
(237,682,o),
(270,685,cs),
(302,688,l),
(302,713,l),
(152,710,l),
(0,713,l),
(0,688,l),
(29,682,ls),
(83,671,o),
(108,647,o),
(139,593,cs),
(300,311,l),
(145,311,l),
(145,279,l),
(314,279,l),
(314,197,l),
(145,197,l),
(145,165,l),
(314,165,l),
(314,133,ls),
(314,34,o),
(297,32,o),
(228,24,cs),
(208,22,l)
);
}
